{"glyphs":{"0":{"ha":986,"x_min":0,"x_max":0,"o":"m 549 971 b 264 817 440 971 339 906 b 113 485 189 728 135 611 b 147 153 90 358 103 242 b 378 -1 190 64 269 -1 b 663 153 486 -1 589 64 b 814 485 738 242 792 358 b 779 817 836 611 824 728 b 549 971 736 906 657 971 z m 550 239 b 404 153 499 179 447 153 b 290 239 361 153 319 179 b 267 485 261 297 249 386 b 376 732 283 583 326 672 b 522 817 428 792 479 818 b 636 732 565 818 607 792 b 661 485 667 672 678 583 b 550 239 643 386 600 297 z "},"1":{"ha":465,"x_min":0,"x_max":0,"o":"m 397 907 b 397 914 397 910 397 913 b 396 922 397 917 396 919 b 394 929 396 924 394 926 b 393 933 393 931 393 932 b 392 935 392 935 392 935 b 388 942 390 938 389 939 b 385 947 386 943 386 946 b 381 951 383 949 382 950 b 375 957 378 954 376 956 b 369 961 374 958 371 960 b 363 964 367 961 365 963 b 357 967 361 965 358 965 b 350 969 354 968 353 968 b 343 969 347 969 346 969 b 335 971 340 971 338 971 b 333 971 335 971 333 971 b 328 971 332 971 331 971 b 319 969 325 971 322 971 b 313 968 317 969 315 968 b 304 965 310 967 307 967 b 296 963 301 965 299 964 b 292 960 294 961 293 961 l 103 858 b 57 753 63 838 42 790 b 117 715 68 729 90 715 b 158 726 131 715 144 719 l 219 760 l 99 75 b 161 -1 90 33 119 -1 b 251 75 204 -1 244 33 l 396 894 b 397 899 397 896 396 897 b 397 907 397 901 397 904 z "},"2":{"ha":819,"x_min":0,"x_max":0,"o":"m 658 151 l 364 151 l 668 389 b 821 636 751 454 806 546 b 774 860 835 715 821 796 b 546 969 721 932 636 969 b 307 883 467 969 381 940 l 257 844 b 232 736 221 815 210 767 b 340 731 256 704 303 701 l 340 731 l 390 769 b 519 815 431 800 476 815 b 642 757 568 815 613 796 b 667 636 667 722 675 679 b 585 503 658 588 631 539 l 108 132 b 85 22 72 103 61 54 b 136 -3 96 6 115 -3 b 139 -3 138 -3 139 -3 b 142 -3 140 -3 140 -3 l 632 -3 b 722 74 674 -3 714 32 b 658 151 729 117 701 151 z "},"3":{"ha":847,"x_min":0,"x_max":0,"o":"m 613 657 l 819 838 b 838 857 826 843 832 850 b 853 894 844 868 851 881 b 789 972 861 938 832 972 l 379 972 b 286 894 335 972 293 938 b 351 815 278 850 307 815 l 575 815 l 408 671 b 390 560 374 639 365 590 b 392 558 392 558 392 558 b 446 533 404 542 422 532 b 568 478 493 532 538 515 b 599 346 597 442 607 394 b 521 213 590 297 564 250 b 378 158 476 176 426 158 b 256 213 329 158 285 176 b 144 213 231 243 181 243 b 124 101 108 182 99 132 b 350 0 179 35 263 0 b 350 0 350 0 350 0 b 613 101 439 0 533 35 b 757 346 692 169 742 258 b 699 589 772 433 754 522 b 613 657 675 618 646 640 z "},"4":{"ha":922,"x_min":0,"x_max":0,"o":"m 771 332 l 757 332 l 856 893 b 856 896 856 894 856 894 b 857 906 856 899 857 903 b 856 911 857 907 857 910 b 856 919 856 914 856 917 b 854 925 854 921 854 924 b 851 932 853 928 853 931 b 849 939 850 935 849 936 b 844 944 847 940 846 943 b 840 950 843 946 842 949 b 838 953 839 951 839 951 b 835 954 836 953 836 954 b 829 958 833 956 831 957 b 824 963 828 960 825 961 b 817 965 821 964 819 964 b 810 967 815 965 813 967 b 803 968 808 968 806 968 b 796 969 800 969 799 969 b 792 969 794 969 793 969 b 789 969 790 969 789 969 b 781 968 786 969 783 969 b 772 967 778 968 775 968 b 765 965 769 967 768 965 b 757 961 763 964 760 963 b 751 958 756 961 753 960 b 743 954 749 957 746 956 b 738 950 742 953 739 951 b 731 943 735 947 732 946 b 728 940 729 943 728 942 l 101 303 b 94 196 69 271 65 222 b 139 178 107 183 122 178 b 142 178 140 178 140 178 b 142 178 142 178 142 178 l 576 178 l 557 74 b 621 -3 550 32 578 -3 b 711 74 664 -3 704 32 l 729 178 l 743 178 b 833 256 786 178 826 213 b 771 332 842 297 813 332 z m 326 332 l 664 675 l 603 332 l 326 332 z "},"5":{"ha":840,"x_min":0,"x_max":0,"o":"m 746 817 b 838 894 789 817 831 851 b 774 974 846 939 817 974 l 364 974 b 326 965 350 974 338 971 b 321 963 324 964 322 963 b 315 958 319 961 317 960 b 271 903 294 947 278 926 l 165 544 b 163 521 163 536 161 529 b 163 518 163 519 163 519 b 163 510 163 515 163 513 b 165 501 164 507 164 504 b 165 499 165 500 165 499 b 176 479 168 492 171 485 b 288 479 201 449 251 449 b 431 533 331 515 382 533 b 553 479 478 533 522 515 b 585 347 583 443 593 396 b 506 214 575 299 549 251 b 363 158 463 178 411 160 b 240 214 315 160 271 176 b 129 214 215 244 165 244 b 110 103 93 183 83 133 l 110 103 b 335 1 164 35 247 1 b 335 1 335 1 335 1 b 597 103 424 1 518 36 b 742 347 676 169 726 258 b 683 590 757 435 739 524 b 458 692 628 658 546 692 b 363 679 426 692 394 688 l 404 817 l 746 817 z "},"6":{"ha":892,"x_min":0,"x_max":0,"o":"m 503 676 b 364 649 456 676 408 665 b 389 685 372 661 381 674 b 494 782 419 725 456 758 b 632 822 533 804 578 819 b 719 901 675 824 714 858 b 653 975 725 944 696 976 b 432 910 572 972 497 949 b 211 672 335 851 263 764 b 113 388 161 579 129 479 b 101 307 107 360 104 333 b 103 306 101 307 103 306 b 385 3 89 135 210 3 b 781 339 571 3 747 153 b 503 676 814 525 689 676 z m 411 157 b 260 339 310 157 243 239 b 476 522 278 440 375 522 b 626 339 578 522 644 440 l 626 339 b 411 157 608 239 513 157 z "},"7":{"ha":815,"x_min":0,"x_max":0,"o":"m 744 908 b 743 915 744 911 744 914 b 743 922 743 918 743 919 b 740 931 742 925 742 928 b 738 935 739 932 739 933 b 735 942 738 938 736 939 b 731 947 733 943 732 944 b 725 953 729 949 726 950 b 721 957 724 954 722 956 b 696 968 714 963 706 967 b 679 969 690 969 685 969 l 206 969 b 115 893 164 969 124 935 b 179 815 108 850 136 815 l 538 815 l 113 104 b 135 3 89 65 99 19 b 164 -3 144 0 154 -3 b 243 44 194 -3 225 15 l 732 863 b 739 878 735 867 738 872 b 744 908 743 888 744 899 z "},"8":{"ha":875,"x_min":0,"x_max":0,"o":"m 672 604 b 743 740 708 642 733 689 b 554 969 765 867 681 969 b 285 740 428 969 307 867 b 306 604 275 689 283 642 b 110 328 206 544 129 443 b 382 -3 76 146 200 -3 b 772 328 565 -3 740 146 b 672 604 792 443 751 544 z m 526 818 b 592 740 571 818 599 783 b 500 663 583 699 543 664 b 435 740 457 664 428 699 b 526 818 443 783 483 818 z m 408 149 b 260 328 310 149 243 229 b 472 508 278 428 372 508 b 621 328 572 508 638 428 b 408 149 603 229 508 149 z "},"9":{"ha":892,"x_min":0,"x_max":0,"o":"m 803 669 b 521 971 815 839 694 971 b 124 635 335 971 157 821 b 401 299 92 449 215 299 b 540 326 450 299 497 308 b 515 290 533 314 525 301 b 411 193 485 249 450 215 b 274 153 371 169 328 154 b 185 72 231 151 192 115 b 249 -1 179 31 208 -1 b 253 -1 250 -1 251 -1 b 472 64 333 1 408 26 b 693 301 571 122 642 210 b 792 586 744 394 776 494 b 803 667 797 614 800 640 b 803 669 803 668 803 668 z m 429 451 b 278 635 328 451 260 533 b 493 817 296 735 392 817 b 644 635 594 817 663 735 b 429 451 626 533 531 451 z "},"\u0000":{"ha":694,"x_min":0,"x_max":0,"o":""},"B":{"ha":825,"x_min":0,"x_max":0,"o":"m 215 -1 b 217 -1 217 -1 217 -1 b 219 -1 218 -1 218 -1 l 467 -1 b 817 296 631 -1 788 132 b 721 549 835 403 796 496 b 801 706 761 592 790 647 b 583 971 826 853 729 971 l 390 971 b 389 971 390 971 389 971 b 388 971 388 971 388 971 b 297 894 344 971 304 936 l 153 75 b 215 -1 144 33 174 -1 z m 493 153 l 319 153 l 371 440 l 544 440 b 663 296 624 440 676 375 b 493 153 649 217 572 153 z m 647 706 b 517 594 636 644 578 594 l 397 594 l 438 817 l 556 817 b 647 706 617 817 658 767 z "},"C":{"ha":999,"x_min":0,"x_max":0,"o":"m 561 0 b 561 0 561 0 561 0 b 888 106 676 0 792 39 b 921 213 926 131 940 179 b 815 226 900 246 853 253 b 588 154 749 181 669 154 b 361 251 492 154 413 192 b 303 486 310 313 286 394 b 444 721 318 578 371 660 b 704 818 517 781 610 818 b 907 746 786 818 856 790 b 1017 758 936 719 985 725 b 1022 867 1049 792 1051 840 b 732 972 950 933 849 972 b 149 486 458 972 197 756 b 561 0 101 215 288 0 z "},"D":{"ha":999,"x_min":0,"x_max":0,"o":"m 215 0 b 217 0 215 0 215 0 b 217 0 217 0 217 0 l 379 0 b 951 486 647 0 904 218 b 551 972 999 756 819 972 l 388 972 b 388 972 388 972 388 972 b 388 972 388 972 388 972 b 296 896 344 972 304 939 l 153 78 b 215 0 144 35 174 0 z m 797 486 b 407 154 765 303 590 154 l 319 154 l 436 819 l 524 819 b 797 486 707 818 829 671 z "},"E":{"ha":824,"x_min":0,"x_max":0,"o":"m 215 -3 b 215 -3 215 -3 215 -3 b 217 -3 217 -3 217 -3 l 668 -3 b 758 74 710 -3 750 32 b 694 151 765 117 738 151 l 318 151 l 364 407 l 688 407 b 778 483 731 407 771 440 b 715 560 786 526 757 560 l 390 560 l 436 815 l 813 815 b 903 893 854 815 894 850 b 839 969 910 935 882 969 l 389 969 b 388 969 389 969 388 969 b 386 969 388 969 386 969 b 296 893 343 969 303 935 l 151 74 b 215 -3 144 32 172 -3 z "},"F":{"ha":833,"x_min":0,"x_max":0,"o":"m 215 0 b 306 76 258 0 299 35 l 365 410 l 689 410 b 779 486 731 410 771 443 b 715 563 786 529 758 563 l 392 563 l 438 818 l 813 818 b 903 896 856 818 896 853 b 840 972 911 938 882 972 l 390 972 b 389 972 389 972 389 972 b 388 972 388 972 388 972 b 297 896 344 972 304 938 l 153 76 b 215 0 144 35 174 0 z "},"G":{"ha":1111,"x_min":0,"x_max":0,"o":"m 560 1 b 561 1 560 1 560 1 b 888 107 676 1 792 42 b 917 139 900 115 910 126 b 918 140 918 140 918 140 b 922 149 919 143 921 146 b 929 169 925 156 928 163 l 982 469 b 918 546 989 513 961 546 b 918 546 918 546 918 546 b 917 546 917 546 917 546 l 650 546 b 560 469 607 546 567 513 b 622 393 551 428 581 393 l 815 393 l 782 208 b 588 156 722 175 656 156 b 361 254 492 156 413 193 b 303 488 310 314 286 397 b 443 722 318 579 371 661 b 704 821 517 783 608 821 b 907 747 786 821 856 793 b 1017 761 936 721 985 728 b 1022 868 1049 794 1051 843 b 732 974 950 935 849 974 b 149 488 458 974 197 758 b 560 1 101 218 288 3 z "},"H":{"ha":1056,"x_min":0,"x_max":0,"o":"m 724 410 l 665 76 b 729 0 658 35 686 0 b 819 76 771 0 813 35 l 964 896 b 900 972 971 938 943 972 b 810 896 858 972 818 938 l 751 563 l 392 563 l 450 896 b 388 972 458 938 429 972 b 296 896 344 972 304 938 l 153 76 b 215 0 144 35 174 0 b 306 76 258 0 299 35 l 364 410 l 724 410 z "},"I":{"ha":424,"x_min":0,"x_max":0,"o":"m 315 75 l 460 894 b 396 971 467 936 439 971 b 306 894 354 971 314 936 l 161 75 b 225 -1 154 33 182 -1 b 315 75 267 -1 308 33 z "},"J":{"ha":825,"x_min":0,"x_max":0,"o":"m 131 335 b 64 238 88 321 58 278 b 350 -1 83 99 196 -1 b 756 343 540 -1 722 153 l 853 894 b 789 971 860 936 832 971 b 699 894 747 971 706 936 l 699 894 l 601 343 b 376 153 583 238 482 153 b 218 285 292 151 229 208 b 131 335 213 325 174 347 z "},"K":{"ha":993,"x_min":0,"x_max":0,"o":"m 388 972 b 297 896 344 972 304 938 l 153 76 b 215 0 144 35 174 0 b 306 76 258 0 299 35 l 342 276 l 514 424 l 769 28 b 824 0 781 10 801 0 b 875 18 840 0 860 6 b 906 126 913 44 926 93 l 642 532 l 1006 842 b 1024 950 1040 871 1049 919 b 915 950 1000 979 951 979 l 379 494 l 450 896 b 388 972 458 938 429 972 z "},"L":{"ha":860,"x_min":0,"x_max":0,"o":"m 215 3 b 217 4 217 3 217 4 b 218 3 218 4 218 3 l 668 3 b 760 81 711 3 751 38 b 696 157 767 122 739 157 l 319 157 l 450 899 b 388 975 458 942 429 975 b 297 899 344 975 304 942 l 153 81 b 215 3 144 38 174 3 z "},"M":{"ha":1206,"x_min":0,"x_max":0,"o":"m 444 942 b 388 974 433 964 411 975 b 386 974 386 974 386 974 b 386 974 386 974 386 974 b 386 974 386 974 386 974 b 296 897 343 974 303 940 l 151 79 b 215 1 144 36 172 1 b 306 79 257 1 297 36 l 408 663 l 558 385 b 615 353 569 364 592 353 b 617 353 615 353 617 353 b 619 353 618 353 618 353 b 688 385 643 353 668 364 l 935 663 l 832 79 b 896 1 825 36 853 1 b 986 79 939 1 979 36 l 1131 897 b 1068 974 1138 940 1110 974 b 1068 974 1068 974 1068 974 b 1067 974 1067 974 1067 974 b 1067 974 1067 974 1067 974 b 997 943 1042 975 1017 964 l 653 558 l 444 942 z "},"N":{"ha":1097,"x_min":0,"x_max":0,"o":"m 153 76 b 215 0 144 33 174 0 b 306 76 258 0 299 33 l 408 658 l 747 36 b 753 26 749 32 751 29 b 806 0 764 10 783 0 b 896 76 849 0 889 33 l 1040 892 b 976 968 1047 933 1019 968 b 886 892 935 968 894 933 l 785 313 l 443 940 b 340 957 425 975 378 982 b 296 892 315 942 300 917 b 296 892 296 892 296 892 l 153 76 z "},"O":{"ha":1181,"x_min":0,"x_max":0,"o":"m 501 -1 b 501 -1 501 -1 501 -1 b 856 143 631 -1 757 54 b 1049 485 954 231 1026 351 b 976 826 1072 617 1043 739 b 674 971 908 915 801 971 b 319 826 544 971 418 915 b 125 485 221 739 149 617 b 199 143 101 351 131 231 b 501 -1 265 54 372 -1 z m 413 721 b 646 817 479 781 563 817 b 846 721 729 817 800 781 b 896 485 892 661 913 578 b 763 247 879 392 829 308 b 529 151 694 188 613 153 b 329 247 444 153 375 188 b 279 485 283 308 263 392 b 413 721 296 578 346 661 z "},"P":{"ha":810,"x_min":0,"x_max":0,"o":"m 215 1 b 306 78 257 1 299 36 l 358 378 l 531 378 b 881 676 694 379 851 511 b 635 974 910 840 800 974 l 389 974 b 388 974 388 974 388 974 b 386 974 388 974 388 974 b 296 897 344 974 304 939 l 151 78 b 215 1 144 36 172 1 z m 726 676 b 557 532 713 597 636 532 l 386 532 l 436 819 l 608 819 b 726 676 688 819 740 756 z "},"Q":{"ha":1172,"x_min":0,"x_max":0,"o":"m 1092 -25 b 979 -11 1071 11 1021 17 b 832 -65 917 -53 874 -65 b 683 -14 786 -65 736 -46 l 715 0 b 899 114 781 26 842 67 b 1103 479 1001 208 1081 336 b 1025 846 1129 621 1096 751 b 701 1000 954 939 839 1000 b 322 846 564 1000 429 939 b 118 479 218 751 140 621 b 196 114 92 336 122 208 b 328 3 229 69 275 32 l 325 1 b 265 -108 281 -17 254 -67 b 283 -139 268 -119 275 -131 b 285 -140 285 -139 285 -139 b 292 -143 286 -142 289 -142 b 375 -147 313 -158 343 -162 l 375 -147 b 479 -122 382 -143 432 -122 b 560 -144 508 -122 535 -131 b 803 -228 626 -189 703 -228 b 804 -228 803 -228 803 -228 b 1057 -140 885 -228 971 -200 b 1092 -25 1099 -111 1114 -61 z m 281 479 b 424 733 297 581 353 669 b 672 833 496 797 583 833 b 888 733 763 833 838 797 b 940 479 936 669 957 581 b 797 226 924 381 868 292 b 547 124 725 164 636 124 b 333 226 458 124 383 164 b 281 479 285 292 264 381 z "},"R":{"ha":868,"x_min":0,"x_max":0,"o":"m 803 115 b 764 163 799 138 783 154 b 771 244 763 176 763 203 b 751 394 781 303 772 354 b 714 446 740 414 728 431 b 861 675 789 500 846 582 b 617 972 890 839 781 972 l 369 972 b 368 972 369 972 369 972 b 368 972 368 972 368 972 b 278 896 325 972 285 938 l 133 76 b 196 0 125 35 154 0 b 286 76 239 0 279 35 l 340 378 l 504 378 b 576 344 517 374 550 364 b 611 303 592 332 604 319 b 617 244 618 288 621 271 b 618 78 604 167 604 117 b 654 28 625 57 638 40 b 706 13 671 17 690 13 b 706 13 706 13 706 13 b 738 18 719 13 731 15 b 803 115 779 31 808 75 z m 418 818 l 589 818 b 708 675 668 818 722 754 b 539 531 693 596 618 531 l 367 531 l 418 818 z "},"S":{"ha":926,"x_min":0,"x_max":0,"o":"m 115 136 l 115 136 b 439 0 181 74 292 1 l 439 0 b 703 76 535 0 626 28 l 703 76 b 854 286 778 125 839 200 l 854 286 b 843 403 863 328 858 368 l 843 403 b 729 514 821 453 778 488 l 729 514 b 551 571 678 540 618 558 l 551 571 l 549 571 l 549 571 b 389 631 478 585 421 606 l 389 631 b 360 665 374 643 364 654 l 360 665 b 356 703 354 676 353 688 l 356 703 b 422 789 361 732 382 761 l 422 789 b 583 833 463 815 521 835 l 583 833 b 786 749 665 835 725 793 l 786 749 b 885 768 814 726 858 736 l 885 768 b 882 864 911 800 911 843 l 882 864 b 607 972 821 908 738 972 l 607 972 b 361 900 518 972 432 946 l 361 900 b 217 703 290 856 232 785 l 217 703 b 228 593 210 664 214 625 l 228 593 b 336 488 250 544 289 513 l 336 488 b 500 435 383 464 439 447 l 501 435 l 503 435 l 503 435 b 678 369 581 419 643 396 l 678 369 b 713 329 696 357 706 343 l 713 329 b 717 286 718 317 719 304 l 717 286 b 640 189 710 253 686 219 l 640 189 b 464 139 596 160 532 139 l 464 139 b 222 243 365 138 272 194 l 222 243 b 122 233 196 267 151 263 l 122 233 b 115 136 93 203 90 160 z "},"T":{"ha":900,"x_min":0,"x_max":0,"o":"m 78 896 b 140 819 69 853 99 819 l 360 819 l 229 78 b 292 0 221 35 250 0 b 382 78 335 0 375 35 l 513 819 l 732 819 b 822 896 774 819 815 853 b 758 972 829 939 801 972 l 168 972 b 78 896 125 972 85 939 z "},"U":{"ha":1131,"x_min":0,"x_max":0,"o":"m 1011 972 b 921 896 969 972 928 939 l 833 401 b 542 154 810 265 679 154 b 338 401 406 154 314 265 l 425 896 b 363 972 433 939 404 972 b 271 896 319 972 279 939 l 185 401 b 515 0 146 181 293 0 b 988 401 738 0 949 181 l 1075 896 b 1011 972 1082 939 1054 972 z "},"V":{"ha":1042,"x_min":0,"x_max":0,"o":"m 896 968 b 788 926 860 985 811 967 l 400 276 l 240 926 b 147 968 231 967 189 985 b 88 867 104 951 78 907 l 289 49 b 293 38 289 44 290 40 b 293 36 293 36 293 36 b 299 26 296 32 297 29 b 301 24 300 25 300 25 b 308 17 304 21 306 18 b 310 15 310 15 310 15 b 322 8 314 13 318 10 b 322 8 322 8 322 8 b 324 7 322 8 324 7 b 335 4 328 6 331 4 b 338 3 336 4 336 3 b 351 1 342 3 346 1 l 351 1 l 351 1 b 365 3 356 1 360 3 b 368 4 365 3 367 4 b 381 7 372 4 376 6 b 382 8 381 7 381 7 b 383 8 382 8 382 8 b 396 15 388 10 392 13 b 399 17 397 15 397 15 b 408 24 401 18 406 21 b 411 26 410 25 411 25 b 421 35 414 29 418 32 b 422 38 421 36 421 36 b 431 49 425 40 428 44 l 919 867 b 896 968 943 907 932 951 z "},"W":{"ha":1531,"x_min":0,"x_max":0,"o":"m 1410 967 b 1303 926 1374 983 1326 965 l 914 276 l 808 707 b 743 754 801 738 775 754 b 663 707 713 754 681 738 l 404 276 l 246 926 b 151 967 236 965 194 983 b 93 867 110 950 83 906 l 293 49 b 299 36 294 44 296 40 b 299 35 299 36 299 35 b 304 25 300 32 303 28 b 307 24 306 25 306 24 b 314 15 308 21 311 18 b 315 14 314 15 315 15 b 326 7 319 11 322 10 b 328 7 326 7 328 7 b 329 7 328 7 329 7 b 339 3 333 6 336 4 b 343 3 340 3 342 3 b 356 1 347 1 351 1 b 356 1 356 1 356 1 b 357 1 357 1 357 1 b 357 1 357 1 357 1 b 357 1 357 1 357 1 b 369 3 361 1 365 1 b 374 3 371 3 372 3 b 385 7 378 4 381 6 b 388 7 386 7 386 7 b 389 7 388 7 388 7 b 401 14 393 10 397 11 b 404 15 403 15 403 15 b 414 24 407 18 411 21 b 417 25 415 24 415 25 b 425 35 419 28 422 32 b 428 36 426 35 426 36 b 436 49 431 40 433 44 l 696 483 l 803 49 b 807 36 804 44 806 40 b 808 35 807 36 808 35 b 814 25 810 32 811 28 b 815 24 814 25 815 24 b 824 15 818 21 821 18 b 825 14 824 15 824 15 b 836 7 828 11 832 10 b 836 7 836 7 836 7 b 839 7 838 7 838 7 b 849 3 842 6 844 4 b 853 3 850 3 851 3 b 865 1 857 1 861 1 b 865 1 865 1 865 1 b 865 1 865 1 865 1 b 865 1 865 1 865 1 b 865 1 865 1 865 1 b 879 3 869 1 875 1 b 883 3 881 3 882 3 b 894 7 886 4 890 6 b 896 7 894 7 896 7 b 897 7 897 7 897 7 b 911 14 901 10 907 11 b 913 15 911 15 913 15 b 922 24 917 18 919 21 b 926 25 924 24 925 25 b 935 35 929 28 932 32 b 936 36 935 35 936 36 b 944 49 939 40 942 44 l 1433 867 b 1410 967 1457 906 1447 950 z "},"X":{"ha":1003,"x_min":0,"x_max":0,"o":"m 986 960 b 876 943 957 985 907 976 l 582 618 l 401 943 b 297 960 383 976 336 985 b 263 851 258 935 243 886 l 464 488 l 133 124 b 132 17 103 90 101 42 b 174 1 143 7 158 1 b 242 33 197 1 224 13 l 536 358 l 715 33 b 772 1 728 13 749 1 b 821 17 788 1 804 7 b 856 124 858 42 875 90 l 654 488 l 985 851 b 986 960 1015 886 1017 935 z "},"Y":{"ha":839,"x_min":0,"x_max":0,"o":"m 822 849 b 824 956 853 883 854 931 b 714 939 794 981 744 974 l 417 611 l 235 939 b 129 956 215 974 168 981 b 94 849 92 931 75 883 l 313 456 l 244 75 b 308 -1 238 33 265 -1 b 399 75 350 -1 392 33 l 465 456 l 822 849 z "},"Z":{"ha":926,"x_min":0,"x_max":0,"o":"m 997 899 b 997 907 997 901 997 904 b 997 915 997 910 997 913 b 996 922 997 917 996 919 b 994 929 996 924 994 926 b 992 935 993 931 993 933 b 988 942 990 938 989 939 b 985 947 988 943 986 944 b 979 953 983 949 981 950 b 976 956 978 954 976 956 b 975 957 975 957 975 957 b 968 961 972 958 971 960 b 963 964 967 963 965 964 b 957 967 961 965 958 965 b 949 969 954 968 951 968 b 943 969 947 969 946 969 b 935 971 940 971 938 971 b 933 971 933 971 933 971 l 335 971 b 244 894 293 971 251 936 b 308 817 238 851 265 817 l 754 817 l 122 121 b 122 119 122 121 122 119 b 117 113 119 117 118 115 b 113 107 115 111 114 108 b 108 100 111 104 110 103 b 104 92 107 97 106 94 b 103 86 104 90 104 89 b 100 76 103 83 101 81 b 100 75 100 76 100 76 b 100 71 100 74 100 72 b 99 61 100 68 99 65 b 100 56 99 60 100 57 b 100 47 100 53 100 50 b 103 42 101 46 101 43 b 106 35 103 39 104 36 b 108 29 106 32 107 31 b 113 22 110 26 111 25 b 117 17 114 21 115 19 b 121 14 118 17 119 14 b 122 13 121 13 122 13 b 125 10 124 11 124 11 b 133 6 128 8 131 7 b 136 4 135 6 136 4 b 146 1 140 3 143 1 b 150 0 147 0 149 0 b 164 -1 154 -1 158 -1 b 164 -1 164 -1 164 -1 l 761 -1 b 851 75 804 -1 844 33 b 789 153 860 118 831 153 l 342 153 l 974 849 b 975 850 974 849 974 850 b 981 857 976 853 978 856 b 985 863 982 860 983 861 b 988 871 986 865 988 868 b 992 878 989 872 990 875 b 993 883 993 879 993 882 b 996 893 994 886 996 890 b 996 894 996 893 996 893 b 997 899 997 896 997 897 z "},"a":{"ha":860,"x_min":0,"x_max":0,"o":"m 342 1 b 342 1 342 1 342 1 b 536 61 410 1 478 25 b 599 1 538 28 561 1 b 685 76 639 1 676 35 l 779 619 b 719 693 788 661 761 693 b 638 635 683 693 650 668 b 464 693 592 671 532 693 b 210 592 372 693 281 654 b 74 347 140 528 89 442 b 125 104 56 254 78 168 b 342 1 172 42 250 1 z m 300 490 b 438 547 340 525 388 547 b 554 490 488 547 528 525 b 585 347 582 454 596 404 b 504 206 575 292 546 242 b 368 149 465 169 417 149 b 250 206 318 149 276 169 b 219 347 222 242 210 292 b 300 490 229 404 260 454 z "},"b":{"ha":917,"x_min":0,"x_max":0,"o":"m 200 -3 b 283 57 236 -3 269 22 b 464 -3 332 19 392 -3 b 864 346 654 -3 831 154 b 586 694 897 538 775 694 b 388 638 517 694 449 672 l 431 896 b 368 972 439 938 410 972 b 279 896 326 972 286 938 l 138 74 b 200 -3 129 31 158 -3 z m 418 486 b 558 544 458 522 510 544 b 683 486 611 544 654 522 b 713 346 710 450 722 400 b 632 206 703 290 674 240 b 492 147 590 169 540 147 b 368 206 439 147 396 169 b 338 346 340 240 328 290 b 418 486 347 400 376 450 z "},"c":{"ha":793,"x_min":0,"x_max":0,"o":"m 415 0 b 415 0 415 0 415 0 b 653 76 500 0 583 28 b 685 182 690 101 704 149 b 582 196 665 215 619 221 b 442 150 540 167 492 150 b 267 354 324 150 247 243 b 514 557 286 465 396 557 b 638 513 564 557 607 540 b 746 525 667 488 715 493 b 751 632 778 558 779 606 b 540 708 699 679 625 708 b 115 354 342 708 151 551 b 415 0 81 157 217 0 z "},"d":{"ha":917,"x_min":0,"x_max":0,"o":"m 393 -1 b 592 58 464 -1 532 22 b 656 -1 593 25 619 -1 b 744 75 697 -1 736 33 l 886 897 b 824 972 893 939 865 972 b 735 897 783 972 742 939 l 693 635 b 515 694 644 672 585 694 b 117 346 326 694 150 536 b 393 -1 83 157 204 0 z m 347 486 b 489 543 388 522 438 543 b 611 486 540 543 582 522 b 640 346 638 451 650 403 b 561 207 632 292 601 243 b 419 150 519 172 471 150 b 297 207 368 150 326 172 b 268 346 269 243 257 292 b 347 486 276 403 307 451 z "},"e":{"ha":846,"x_min":0,"x_max":0,"o":"m 389 0 b 675 107 514 0 592 29 b 681 199 701 133 704 172 b 581 196 678 201 633 246 b 415 143 535 154 468 139 b 293 206 368 147 315 172 b 263 297 274 229 263 265 l 706 297 b 788 353 743 297 778 319 b 790 365 789 356 790 363 b 790 365 790 365 790 365 b 790 365 790 365 790 365 b 792 372 792 367 792 369 b 515 694 815 560 697 694 b 115 347 325 694 150 536 b 389 0 81 158 199 1 z m 492 563 b 669 415 611 553 667 471 l 276 415 b 492 563 299 472 372 557 z "},"f":{"ha":503,"x_min":0,"x_max":0,"o":"m 406 810 b 415 814 408 811 408 811 b 451 818 421 817 433 818 b 542 894 493 818 533 853 b 478 972 549 938 521 972 b 393 960 450 972 422 969 b 278 875 350 949 304 915 b 228 739 250 833 236 790 l 224 719 l 188 719 b 97 643 146 719 106 685 b 161 565 90 600 118 565 l 197 565 l 111 76 b 174 0 103 33 132 0 b 264 76 217 0 257 33 l 350 565 l 392 565 b 482 643 433 565 474 600 b 418 719 489 685 461 719 l 378 719 l 381 739 b 406 810 390 790 404 808 z "},"g":{"ha":917,"x_min":0,"x_max":0,"o":"m 771 342 b 771 343 771 343 771 343 l 819 619 b 758 694 828 661 800 694 b 675 633 722 694 688 669 b 497 694 628 672 567 694 b 240 589 404 694 311 653 b 100 342 168 525 117 438 b 153 94 83 247 104 158 b 374 -11 201 32 279 -11 b 374 -11 374 -11 374 -11 b 565 46 440 -11 507 11 b 357 -104 535 -39 447 -104 b 278 -85 326 -104 301 -97 b 172 -119 244 -67 197 -82 b 189 -219 147 -157 156 -201 b 331 -253 229 -240 278 -253 b 725 83 517 -253 693 -103 l 771 342 b 771 342 771 342 771 342 z m 400 140 b 279 199 350 140 308 161 b 250 342 253 235 239 285 b 331 486 260 400 290 450 b 472 544 372 522 421 544 b 590 486 522 544 563 522 b 622 343 618 451 632 400 l 621 342 b 539 199 611 285 581 233 b 400 140 499 161 450 140 z "},"h":{"ha":851,"x_min":0,"x_max":0,"o":"m 651 1 b 742 78 693 1 733 36 l 801 393 b 553 696 831 561 719 696 b 397 657 499 696 444 682 l 435 897 b 371 974 442 939 414 974 b 281 897 328 974 288 939 l 197 393 l 136 78 b 200 1 129 36 157 1 b 290 78 242 1 282 36 l 350 393 b 525 542 365 475 443 542 b 647 393 607 542 663 475 l 588 78 b 651 1 581 36 608 1 z "},"i":{"ha":390,"x_min":0,"x_max":0,"o":"m 138 75 b 201 -1 131 33 158 -1 b 292 75 244 -1 285 33 l 392 618 b 329 694 400 660 371 694 b 239 618 286 694 246 660 l 138 75 z m 431 865 l 436 894 b 372 971 443 936 415 971 b 282 894 331 971 290 936 l 278 865 b 340 788 269 822 299 788 b 431 865 383 788 424 822 z "},"j":{"ha":346,"x_min":0,"x_max":0,"o":"m 432 894 b 367 972 439 936 410 972 b 275 894 322 972 282 936 l 269 865 b 333 785 263 821 292 785 b 426 865 378 785 419 821 l 432 894 z m 319 694 b 226 617 275 694 233 661 l 93 -118 b 93 -118 93 -118 93 -118 b 1 -196 50 -118 8 -153 b 65 -275 -7 -240 22 -275 b 250 -118 151 -275 235 -204 l 383 617 b 319 694 390 661 363 694 z "},"k":{"ha":778,"x_min":0,"x_max":0,"o":"m 200 0 b 290 76 243 0 283 35 l 313 197 l 403 275 l 563 28 b 617 0 575 10 594 0 b 669 18 635 0 653 6 b 699 125 707 44 719 93 l 532 383 l 776 592 b 794 700 811 621 819 669 b 686 700 771 729 722 729 l 350 414 l 435 896 b 372 972 443 938 414 972 b 282 896 329 972 289 938 l 138 76 b 200 0 129 35 158 0 z "},"l":{"ha":346,"x_min":0,"x_max":0,"o":"m 290 894 l 146 76 b 210 -1 139 33 168 -1 b 300 76 253 -1 293 33 l 444 894 b 382 971 451 938 424 971 b 290 894 339 971 299 938 z "},"m":{"ha":1321,"x_min":0,"x_max":0,"o":"m 774 406 b 775 408 775 407 775 408 b 942 549 790 486 864 549 b 1058 406 1021 549 1072 485 l 1001 78 b 1061 3 993 36 1021 3 b 1147 78 1101 3 1142 36 l 1206 406 b 968 694 1233 565 1128 694 b 735 599 881 694 799 658 b 535 694 692 658 622 694 b 379 653 481 694 426 679 b 319 694 371 678 349 694 b 232 621 278 694 240 663 l 194 406 b 194 406 194 406 194 406 l 138 78 b 197 3 129 36 157 3 b 283 78 238 3 276 36 l 342 406 b 508 549 356 485 432 549 b 626 408 586 549 639 486 b 626 406 626 408 626 407 l 568 78 b 629 3 563 36 589 3 b 629 3 629 3 629 3 b 629 3 629 3 629 3 b 717 78 671 3 708 36 l 774 406 z "},"n":{"ha":851,"x_min":0,"x_max":0,"o":"m 569 76 b 631 1 563 35 589 1 b 715 76 671 1 710 35 l 774 404 b 535 694 803 565 696 694 b 378 651 481 694 426 679 b 319 694 371 678 349 694 b 232 621 279 694 240 661 l 194 404 b 194 404 194 404 194 404 l 136 76 b 197 1 129 35 157 1 b 197 1 197 1 197 1 b 197 1 197 1 197 1 b 283 76 238 1 278 35 l 343 404 b 510 547 356 483 431 547 b 628 404 589 547 642 483 l 569 76 z "},"o":{"ha":868,"x_min":0,"x_max":0,"o":"m 507 694 b 251 590 414 694 322 653 b 114 346 182 526 131 440 b 165 101 97 250 118 164 b 385 -3 215 38 292 -3 b 385 -3 385 -3 385 -3 b 639 101 478 -3 569 38 b 778 346 710 164 761 250 b 726 590 794 440 774 526 b 507 694 676 653 600 694 z m 631 346 b 550 203 619 289 589 238 b 410 144 508 167 460 144 b 292 203 361 144 319 167 b 261 346 264 238 251 289 b 342 488 272 401 303 453 b 482 546 383 525 431 546 b 599 488 531 546 572 525 b 631 346 628 453 640 401 l 631 346 z "},"p":{"ha":917,"x_min":0,"x_max":0,"o":"m 631 694 b 431 636 561 694 492 672 b 368 694 429 669 404 694 b 279 618 326 694 286 661 l 136 -187 b 199 -264 129 -229 157 -264 b 289 -187 240 -264 281 -229 l 331 56 b 508 -4 378 18 439 -3 b 908 346 696 -3 875 156 b 631 694 942 536 821 694 z m 676 207 b 535 149 635 171 588 149 b 413 207 483 149 442 171 b 383 346 386 240 371 289 b 461 486 392 401 422 450 b 606 543 503 521 554 543 b 726 486 656 543 697 521 b 757 346 756 450 767 401 b 676 207 749 289 718 240 z "},"q":{"ha":917,"x_min":0,"x_max":0,"o":"m 792 347 l 839 618 b 778 693 847 661 818 693 b 693 635 742 693 707 669 b 515 693 646 672 586 693 b 117 346 326 693 150 538 b 393 -1 83 157 204 0 b 590 57 463 0 531 21 l 547 -183 b 608 -260 539 -225 568 -260 b 697 -183 651 -260 690 -225 l 792 346 b 792 346 792 346 792 346 b 792 347 792 346 792 347 z m 560 207 b 419 150 519 172 469 150 b 297 207 368 150 326 172 b 267 346 269 243 257 292 b 347 486 276 401 307 451 b 488 543 389 522 438 543 b 610 486 539 543 582 522 b 640 347 638 451 650 401 l 640 346 b 560 207 631 292 601 243 z "},"r":{"ha":610,"x_min":0,"x_max":0,"o":"m 319 694 b 233 621 279 694 239 661 l 136 74 b 197 0 129 33 157 0 b 285 74 238 0 278 33 l 331 336 b 410 454 340 357 369 408 b 486 521 433 481 458 506 b 575 546 514 536 542 546 b 661 621 615 546 653 581 b 600 694 668 661 642 694 b 417 638 532 694 468 671 b 378 611 403 629 390 621 l 381 621 b 319 694 388 661 361 694 z "},"s":{"ha":683,"x_min":0,"x_max":0,"o":"m 99 97 l 99 97 b 326 1 144 53 221 3 l 326 1 b 517 57 393 1 461 22 l 517 57 b 631 215 571 93 618 150 l 631 215 b 621 308 636 250 633 281 l 621 308 b 538 392 604 347 572 374 l 538 392 b 415 432 503 411 461 424 l 414 432 l 413 433 l 413 433 b 319 465 368 440 333 453 l 319 465 b 306 479 311 471 307 476 l 306 479 b 306 490 306 483 304 485 l 306 490 b 333 521 307 496 313 508 l 333 521 b 421 547 353 536 386 547 l 421 547 b 539 494 465 547 500 524 l 539 494 b 643 515 568 472 617 482 l 643 515 b 640 617 672 549 671 596 l 640 617 l 640 617 b 446 694 601 647 542 694 l 446 694 b 267 642 383 694 321 675 l 267 642 b 158 490 217 607 171 553 l 158 490 b 168 404 154 458 158 429 l 168 404 b 246 322 185 365 217 340 l 246 322 b 361 286 279 306 319 294 l 363 286 l 363 286 l 363 286 l 363 286 b 469 249 411 276 450 261 l 469 249 b 485 231 478 240 482 235 l 485 231 b 486 215 486 225 486 222 l 486 215 b 451 175 483 204 475 192 l 451 175 b 351 150 428 161 390 150 l 351 150 b 214 208 299 149 242 179 l 214 208 b 106 199 186 236 138 232 l 106 199 b 99 97 75 168 71 124 z "},"t":{"ha":556,"x_min":0,"x_max":0,"o":"m 318 974 b 228 897 276 974 236 939 l 197 694 l 157 694 b 67 617 114 694 74 660 b 129 540 58 575 88 540 l 171 540 l 97 156 b 225 1 82 71 139 1 b 315 78 267 1 307 36 b 251 156 322 121 294 156 b 251 156 251 156 251 156 l 324 540 l 360 540 b 450 617 403 540 443 575 b 388 694 458 660 429 694 l 351 694 l 382 897 b 318 974 389 939 361 974 z "},"A":{"ha":897,"x_min":0,"x_max":0,"o":"m 332 229 l 671 229 l 707 50 b 769 0 713 19 739 0 b 797 4 779 0 788 1 b 860 104 840 19 868 64 l 697 922 b 632 972 690 954 664 972 b 550 922 600 972 567 954 l 99 104 b 125 4 76 64 89 19 b 151 0 133 1 143 0 b 232 50 183 0 215 19 l 332 229 z m 417 382 l 581 681 l 640 382 l 417 382 z "},"u":{"ha":851,"x_min":0,"x_max":0,"o":"m 721 694 b 635 621 681 694 642 663 l 576 292 b 408 150 563 214 488 150 b 290 292 331 150 276 214 l 349 621 b 288 694 356 663 329 694 b 201 621 247 694 210 663 l 144 292 b 383 1 115 132 222 1 b 724 292 543 1 696 132 l 781 621 b 721 694 789 663 763 694 z "},"v":{"ha":808,"x_min":0,"x_max":0,"o":"m 651 681 b 549 642 617 696 571 679 l 322 261 l 228 642 b 139 681 219 679 179 696 b 83 585 99 664 74 622 l 215 43 b 219 32 217 40 218 36 b 221 31 219 32 221 31 b 226 22 222 28 224 25 b 228 21 226 22 228 21 b 236 14 231 18 233 15 b 238 13 236 13 236 13 b 247 6 240 10 243 7 b 247 6 247 6 247 6 b 249 4 249 4 249 4 b 260 1 253 3 256 1 b 263 0 260 1 261 0 b 275 -1 267 0 271 -1 b 275 -1 275 -1 275 -1 b 275 -1 275 -1 275 -1 b 275 -1 275 -1 275 -1 b 276 -1 275 -1 275 -1 b 289 0 281 -1 285 0 b 292 1 289 0 290 1 b 303 4 296 1 299 3 b 304 6 303 4 304 4 b 306 6 304 6 306 6 b 318 13 310 7 314 10 b 321 14 319 13 319 13 b 331 21 324 15 328 18 b 333 22 332 21 332 22 b 340 31 336 25 338 28 b 343 32 342 31 342 32 b 350 43 346 36 349 40 l 672 585 b 651 681 696 622 685 664 z "},"w":{"ha":1196,"x_min":0,"x_max":0,"o":"m 988 678 b 886 640 954 694 908 676 l 660 263 l 603 496 b 542 540 596 525 572 542 b 465 496 514 542 483 525 l 326 263 l 233 640 b 144 678 225 676 185 694 b 90 583 106 664 81 621 l 221 47 b 225 36 222 43 224 39 b 226 33 225 35 226 35 b 232 25 228 31 229 28 b 233 22 232 24 233 24 b 240 17 236 21 239 19 b 243 15 242 17 242 15 b 251 8 244 13 249 11 b 253 8 253 8 253 8 b 256 7 254 8 254 8 b 264 4 258 7 261 6 b 268 4 265 4 267 4 b 281 3 272 3 276 3 b 281 3 281 3 281 3 b 281 3 281 3 281 3 b 281 3 281 3 281 3 b 281 3 281 3 281 3 b 293 4 285 3 289 3 b 297 4 294 4 296 4 b 308 7 300 6 304 7 b 310 8 308 8 310 8 b 311 8 310 8 311 8 b 322 15 315 11 318 13 b 325 17 324 15 325 17 b 335 22 328 19 332 21 b 338 25 336 24 336 24 b 346 33 340 28 343 31 b 347 36 347 35 347 35 b 354 47 351 39 354 43 l 497 285 l 556 47 b 560 36 557 43 558 39 b 561 33 560 35 560 35 b 565 25 563 31 564 28 b 568 22 567 24 568 24 b 574 17 571 21 572 19 b 576 15 575 17 575 15 b 586 8 579 13 582 11 b 588 8 586 8 588 8 b 589 7 588 8 589 8 b 599 4 593 7 596 6 b 603 4 600 4 601 4 b 614 3 607 3 610 3 b 614 3 614 3 614 3 b 614 3 614 3 614 3 b 614 3 614 3 614 3 b 614 3 614 3 614 3 b 628 4 618 3 624 3 b 632 4 629 4 631 4 b 642 7 635 6 639 7 b 644 8 643 8 643 8 b 644 8 644 8 644 8 b 657 15 649 11 653 13 b 660 17 658 15 658 17 b 669 22 663 19 665 21 b 672 25 669 24 671 24 b 681 33 675 28 678 31 b 681 36 681 35 681 35 b 689 47 683 39 686 43 l 1010 583 b 988 678 1032 621 1022 664 z "},"x":{"ha":792,"x_min":0,"x_max":0,"o":"m 715 671 b 613 654 688 694 640 688 l 440 467 l 336 654 b 236 671 317 688 272 694 b 203 568 200 647 185 601 l 328 343 l 122 117 b 121 15 93 85 93 39 b 161 1 132 6 147 1 b 226 31 185 1 207 11 l 396 219 l 500 31 b 554 1 513 11 533 1 b 600 15 569 1 585 6 b 633 117 638 39 651 85 l 508 343 l 714 568 b 715 671 743 601 744 647 z "},"y":{"ha":817,"x_min":0,"x_max":0,"o":"m 746 621 b 724 681 750 646 742 668 b 683 694 714 690 700 694 b 615 660 658 694 633 681 b 596 621 606 649 599 635 l 539 288 b 368 143 524 208 449 143 b 249 288 288 143 235 208 l 308 621 b 246 694 315 663 288 694 b 158 621 206 694 167 663 l 100 288 b 342 -6 72 126 181 -6 b 482 28 390 -6 438 6 b 285 -99 444 -47 365 -99 b 207 -81 256 -99 229 -92 b 100 -114 174 -62 125 -78 b 117 -214 76 -151 83 -196 b 258 -249 157 -236 206 -249 b 651 86 443 -249 619 -99 l 726 514 l 746 621 z "},"z":{"ha":769,"x_min":0,"x_max":0,"o":"m 572 147 l 319 147 l 708 576 b 710 578 708 576 708 576 b 714 583 711 579 713 582 b 718 590 715 586 717 588 b 722 597 719 592 721 594 b 726 604 724 599 725 601 b 728 610 726 606 726 608 b 731 618 728 611 729 615 b 731 619 731 618 731 618 b 731 624 731 621 731 622 b 732 632 731 626 732 629 b 731 639 732 635 731 638 b 729 647 731 642 731 644 b 728 653 729 649 729 651 b 725 660 728 656 726 657 b 722 665 725 661 724 664 b 718 671 721 667 719 669 b 714 676 717 674 715 675 b 710 681 713 678 711 679 b 710 681 710 681 710 681 b 703 683 707 682 704 682 b 697 686 701 685 699 686 b 692 689 696 688 694 689 b 686 692 690 690 688 690 b 679 692 683 692 682 692 b 671 693 676 693 674 693 b 669 693 671 693 671 693 l 269 693 b 183 619 229 693 190 661 b 244 544 176 579 203 544 l 497 544 l 108 115 b 108 114 108 115 108 115 b 103 107 106 113 104 110 b 99 103 101 107 99 106 b 94 96 97 100 96 99 b 92 89 93 93 92 92 b 89 82 90 86 90 85 b 86 74 88 79 88 76 b 86 72 86 74 86 74 b 86 67 86 71 86 69 b 85 60 86 65 85 63 b 86 51 85 57 86 54 b 86 46 86 50 86 47 b 89 39 88 43 88 40 b 92 33 89 36 90 35 b 94 28 92 32 93 29 b 99 22 96 26 97 24 b 103 17 100 19 101 18 b 107 13 104 15 106 14 b 108 13 107 13 107 13 b 111 10 108 11 110 11 b 118 6 114 8 115 7 b 121 4 119 6 121 4 b 129 1 124 3 126 1 b 133 0 131 0 132 0 b 147 -1 138 -1 142 -1 b 147 -1 147 -1 147 -1 l 547 -1 b 633 72 588 -1 626 32 b 572 147 640 113 614 147 z "},"&":{"ha":967,"x_min":0,"x_max":0,"o":"m 793 621 b 719 529 750 611 718 571 b 718 507 721 519 719 513 b 715 499 718 501 717 499 b 711 496 715 497 714 497 b 694 494 707 494 701 494 b 692 494 694 494 693 494 b 646 496 676 494 660 496 b 417 425 549 496 472 471 b 335 285 361 379 340 322 b 332 226 328 253 331 231 b 396 172 336 193 363 172 b 418 175 403 172 411 172 b 486 271 461 188 492 231 b 488 285 486 272 486 278 b 504 315 490 297 494 307 b 615 342 514 324 543 342 b 614 333 615 339 614 336 b 401 154 596 235 501 154 b 254 333 303 154 236 235 b 385 496 267 406 319 467 b 392 500 386 497 389 499 b 396 503 393 501 394 501 b 401 506 399 504 400 504 b 419 521 407 510 414 515 b 422 526 421 524 421 525 b 424 526 422 526 422 526 b 419 629 449 561 449 606 b 390 714 396 647 385 679 b 514 818 401 772 456 818 b 600 714 571 818 610 772 b 663 638 592 671 621 638 b 753 714 706 638 746 671 b 540 972 778 857 683 972 b 238 714 399 972 263 857 b 251 579 228 665 235 618 b 100 333 174 518 117 431 b 375 0 68 149 190 0 b 768 333 560 0 735 149 b 772 367 769 344 771 356 b 788 376 778 369 782 372 b 872 507 831 404 864 456 b 875 563 875 525 876 544 b 793 621 874 604 836 631 z "},"@":{"ha":1361,"x_min":0,"x_max":0,"o":"m 693 975 b 121 489 424 975 168 757 b 521 3 74 221 253 3 b 644 18 563 3 604 8 b 715 111 688 28 719 69 b 632 167 713 153 675 176 l 632 167 b 549 157 606 160 576 157 b 275 489 365 157 243 306 b 665 821 307 672 482 821 b 939 489 849 821 971 672 b 876 339 929 435 908 383 b 856 315 875 336 865 325 b 844 308 851 313 849 310 l 874 474 b 874 479 874 475 874 478 b 876 489 875 482 876 485 b 833 686 890 565 874 635 b 657 771 794 738 732 771 b 450 686 581 771 507 738 b 338 489 393 635 351 565 b 381 292 324 413 340 343 b 557 207 419 240 482 207 b 557 207 557 207 557 207 b 686 239 601 207 646 219 b 701 197 689 225 693 211 b 797 144 717 168 754 144 b 835 150 810 144 822 146 b 954 217 889 163 928 193 b 999 264 981 240 996 261 l 1000 265 l 1000 267 b 1093 489 1046 333 1079 408 b 693 975 1140 757 961 975 z m 671 397 b 585 361 646 374 615 361 b 511 397 554 361 528 374 b 492 489 493 419 485 451 b 543 581 497 525 518 558 b 629 617 568 604 599 617 b 703 581 660 617 686 604 b 722 489 721 558 729 525 b 671 397 717 451 696 419 z "},"(":{"ha":597,"x_min":0,"x_max":0,"o":"m 206 -78 b 358 -132 244 -112 299 -132 l 361 -132 b 464 -44 410 -132 456 -93 b 393 43 474 4 442 43 b 338 63 367 44 351 50 b 290 186 315 81 297 122 b 304 424 282 250 286 332 b 404 717 324 544 361 651 b 465 785 425 750 446 772 b 526 803 483 797 500 803 b 629 892 575 803 621 843 b 558 979 638 939 607 979 b 382 924 497 979 435 960 b 213 710 306 871 253 794 b 128 424 172 624 146 526 b 128 56 103 286 99 160 b 206 -78 143 4 168 -43 z "},")":{"ha":597,"x_min":0,"x_max":0,"o":"m 515 925 b 363 979 476 960 422 979 l 360 979 b 257 892 311 979 265 940 b 328 804 247 843 279 804 b 383 785 354 803 369 797 b 431 661 406 767 424 725 b 417 424 439 597 435 515 b 317 131 397 303 360 196 b 256 63 296 97 275 75 b 194 44 238 50 221 44 b 92 -44 146 44 100 4 b 163 -132 83 -92 114 -132 b 339 -76 224 -132 286 -112 b 508 138 415 -24 468 53 b 593 424 549 224 575 321 b 593 792 618 561 622 688 b 515 925 578 843 553 890 z "},"+":{"ha":861,"x_min":0,"x_max":0,"o":"m 574 557 l 454 557 l 478 676 b 418 750 486 715 460 750 b 329 676 378 750 338 715 l 306 557 l 186 557 b 97 483 146 557 106 524 b 156 408 89 442 115 408 l 275 408 l 250 289 b 308 215 242 250 268 215 b 399 289 350 215 390 250 l 424 408 l 543 408 b 632 483 582 408 624 442 b 574 557 640 524 613 557 z "},"!":{"ha":350,"x_min":0,"x_max":0,"o":"m 371 974 b 281 896 329 974 288 939 l 190 382 b 253 304 182 339 211 304 b 344 382 296 304 336 339 l 435 896 b 371 974 443 939 414 974 z m 232 185 b 142 108 190 185 149 150 l 136 78 b 200 1 129 36 157 1 b 290 78 243 1 283 36 l 296 108 b 232 185 303 150 275 185 z "},"?":{"ha":742,"x_min":0,"x_max":0,"o":"m 229 169 b 144 97 189 169 151 138 l 140 71 b 199 -1 133 31 160 -1 b 283 71 239 -1 276 31 l 288 97 b 229 169 294 138 268 169 z m 369 971 b 76 818 257 971 146 910 b 86 721 51 783 54 740 b 188 746 117 700 161 713 l 188 746 b 344 828 225 796 283 828 b 481 664 435 828 496 754 b 286 499 464 572 378 499 b 203 428 247 499 210 467 b 203 425 203 426 203 426 b 201 422 203 424 201 424 l 175 269 b 233 199 168 229 194 199 b 317 269 272 199 310 229 l 335 365 b 622 664 475 397 597 518 b 369 971 653 833 539 971 z "},"<":{"ha":861,"x_min":0,"x_max":0,"o":"m 711 947 b 586 947 683 982 626 982 l 122 550 b 99 522 113 542 104 532 b 97 521 99 522 97 521 b 92 508 94 517 93 513 b 90 504 90 507 90 506 b 86 493 89 500 88 497 b 85 488 86 492 85 489 b 85 478 85 485 85 482 b 83 471 85 475 83 474 b 85 464 83 468 85 465 b 86 454 85 460 85 457 b 88 450 86 453 86 451 b 92 439 89 446 89 442 b 93 436 92 438 92 438 b 100 425 94 432 97 428 l 424 28 b 482 1 439 10 460 1 b 550 26 506 1 529 10 b 572 153 590 61 600 118 l 299 488 l 690 822 b 711 947 731 857 740 913 z "},">":{"ha":861,"x_min":0,"x_max":0,"o":"m 781 496 b 781 504 781 499 781 501 b 781 511 781 507 781 508 b 779 521 779 514 779 518 b 778 525 779 522 778 524 b 774 536 776 528 775 532 b 772 538 774 536 774 538 b 765 550 771 542 768 546 l 440 947 b 315 947 413 982 356 982 b 293 822 275 913 264 857 l 567 488 l 175 153 b 153 26 133 118 124 61 b 211 1 167 10 188 1 b 278 28 233 1 258 10 l 743 425 b 754 436 747 428 750 432 b 756 439 754 436 756 438 b 765 451 760 442 763 447 b 767 454 765 451 767 453 b 774 467 769 458 771 463 b 775 471 774 468 775 469 b 778 482 776 474 778 478 b 779 488 779 483 779 485 b 781 496 781 490 781 493 z "},"=":{"ha":861,"x_min":0,"x_max":0,"o":"m 160 360 l 160 360 l 418 360 l 418 360 b 467 410 446 360 467 382 l 467 410 b 418 460 467 438 446 460 l 160 460 l 160 460 b 110 410 132 460 110 438 l 110 410 b 160 360 110 382 132 360 z m 160 517 l 160 517 l 418 517 l 418 517 b 467 565 446 517 467 538 l 467 565 b 418 614 467 592 446 614 l 160 614 l 160 614 b 110 565 132 614 110 592 l 110 565 b 160 517 110 538 132 517 z "},".":{"ha":319,"x_min":0,"x_max":0,"o":"m 251 69 b 183 138 251 107 221 138 b 114 69 147 138 114 107 b 183 0 114 33 147 0 b 251 69 221 0 251 33 z "},",":{"ha":319,"x_min":0,"x_max":0,"o":"m 210 81 b 210 81 210 81 210 81 b 210 81 210 81 210 81 b 207 82 207 81 207 82 b 139 136 200 114 172 136 b 75 68 104 136 75 104 b 139 1 75 32 104 1 b 158 3 149 1 154 1 b 96 -51 149 -19 135 -43 b 79 -76 83 -56 76 -65 b 100 -93 82 -86 92 -93 b 104 -93 101 -93 104 -93 b 211 54 196 -71 211 13 b 210 81 211 71 210 78 z "},":":{"ha":333,"x_min":0,"x_max":0,"o":"m 264 69 b 208 138 271 107 246 138 b 126 69 172 138 133 107 b 183 0 121 33 147 0 b 264 69 221 0 258 33 z m 367 657 b 311 725 374 694 349 725 b 229 657 275 725 236 694 b 286 588 222 621 250 588 b 367 657 324 588 360 621 z "},";":{"ha":333,"x_min":0,"x_max":0,"o":"m 357 654 b 303 722 365 692 340 722 b 219 654 267 722 228 692 b 276 585 213 618 240 585 b 357 654 314 585 350 618 z m 243 83 b 243 83 243 83 243 83 b 243 83 243 83 243 83 b 242 85 240 83 242 85 b 183 139 240 117 217 139 b 107 71 149 139 114 107 b 157 4 100 35 122 4 b 178 6 167 4 172 4 b 104 -49 164 -17 144 -40 b 83 -74 92 -53 82 -62 b 100 -90 83 -83 92 -90 b 104 -90 101 -90 104 -90 b 240 57 201 -68 232 15 b 243 83 243 74 243 81 z "},";":{"ha":333,"x_min":0,"x_max":0,"o":"m 357 654 b 303 722 365 692 340 722 b 219 654 267 722 228 692 b 276 585 213 618 240 585 b 357 654 314 585 350 618 z m 243 83 b 243 83 243 83 243 83 b 243 83 243 83 243 83 b 242 85 240 83 242 85 b 183 139 240 117 217 139 b 107 71 149 139 114 107 b 157 4 100 35 122 4 b 178 6 167 4 172 4 b 104 -49 164 -17 144 -40 b 83 -74 92 -53 82 -62 b 100 -90 83 -83 92 -90 b 104 -90 101 -90 104 -90 b 240 57 201 -68 232 15 b 243 83 243 74 243 81 z "},"’":{"ha":319,"x_min":0,"x_max":0,"o":"m 82 619 b 125 581 82 597 96 581 b 256 640 164 581 218 603 b 324 843 299 683 324 749 l 324 857 b 224 979 324 932 285 979 b 129 886 167 979 129 939 l 129 875 b 208 782 129 825 168 792 b 114 657 211 719 178 676 b 82 619 96 651 82 639 z "},"‘":{"ha":319,"x_min":0,"x_max":0,"o":"m 350 939 b 307 978 350 961 336 978 b 176 918 267 978 213 956 b 107 715 132 875 107 810 l 107 701 b 207 579 107 626 146 579 b 301 672 264 579 301 619 l 301 683 b 222 778 301 733 263 767 b 317 901 219 839 253 882 b 350 939 336 907 350 919 z "},"”":{"ha":569,"x_min":0,"x_max":0,"o":"m 82 619 b 125 581 82 597 96 581 b 256 640 164 581 218 603 b 324 843 299 683 324 749 l 324 857 b 224 979 324 932 285 979 b 129 886 167 979 129 939 l 129 875 b 208 782 129 825 168 792 b 114 657 211 719 178 676 b 82 619 96 651 82 639 z m 403 619 b 446 581 403 597 417 581 b 576 640 486 581 540 603 b 646 843 621 683 646 749 l 646 857 b 546 979 646 932 607 979 b 451 886 489 979 451 939 l 451 875 b 531 782 451 825 490 792 b 436 657 533 719 500 676 b 403 619 417 651 403 639 z "},"“":{"ha":569,"x_min":0,"x_max":0,"o":"m 672 939 b 628 978 672 961 657 978 b 497 918 589 978 535 956 b 429 715 454 875 429 810 l 429 701 b 529 579 429 626 468 579 b 624 672 586 579 624 619 l 624 683 b 544 778 624 733 585 767 b 639 901 542 839 575 882 b 672 939 658 907 672 919 z m 350 939 b 307 978 350 961 336 978 b 176 918 267 978 213 956 b 107 715 132 875 107 810 l 107 701 b 207 579 107 626 146 579 b 301 672 264 579 301 619 l 301 683 b 222 778 301 733 263 767 b 317 901 219 839 253 882 b 350 939 336 907 350 919 z "},"/":{"ha":694,"x_min":0,"x_max":0,"o":"m 50 6 l 50 6 b 78 0 58 1 69 0 l 78 0 b 149 46 107 0 136 17 l 489 857 l 489 857 b 450 956 506 894 488 940 l 450 956 b 349 915 410 972 365 954 l 8 106 l 8 106 b 50 6 -8 67 10 21 z "},"\\":{"ha":694,"x_min":0,"x_max":0,"o":"m 468 6 b 510 106 508 21 526 67 l 510 106 l 169 915 b 68 956 153 954 108 972 l 68 956 b 29 857 31 940 13 894 l 29 857 l 369 46 b 440 0 382 17 411 0 l 440 0 b 468 6 449 0 460 1 l 468 6 z "}," ":{"ha":417,"x_min":0,"x_max":0,"o":""}," ":{"ha":417,"x_min":0,"x_max":0,"o":""},"-":{"ha":567,"x_min":0,"x_max":0,"o":"m 400 428 l 400 428 b 449 478 428 428 449 450 l 449 478 b 400 528 449 506 428 528 l 142 528 l 142 528 b 92 478 114 528 92 506 l 92 478 b 142 428 92 450 114 428 z "},"'":{"ha":319,"x_min":0,"x_max":0,"o":"m 96 601 b 143 549 94 569 115 549 b 194 592 169 549 185 565 l 296 900 b 301 931 299 911 301 922 b 254 976 301 960 281 976 l 200 976 b 121 899 154 976 124 943 z "},"*":{"ha":597,"x_min":0,"x_max":0,"o":"m 499 563 b 464 606 504 585 486 606 b 429 592 451 606 442 601 l 342 533 l 369 626 b 339 676 379 654 365 676 b 289 625 311 676 290 654 l 285 533 l 218 592 b 190 606 208 601 201 606 b 138 564 165 606 142 586 b 161 521 135 543 146 528 l 244 483 l 147 444 b 110 404 131 439 114 425 b 146 360 106 381 122 360 b 179 374 156 360 167 364 l 267 432 l 239 340 b 269 290 231 311 242 290 b 319 340 297 290 318 313 l 324 432 l 390 374 b 419 360 400 364 407 360 b 471 403 442 360 467 379 b 447 444 474 424 464 438 l 363 483 l 461 521 b 499 563 478 528 496 542 z "},"`":{"ha":694,"x_min":0,"x_max":0,"o":"m 442 819 b 485 849 467 819 485 831 b 472 879 485 858 478 871 l 393 1001 b 326 1042 378 1026 356 1042 b 226 988 282 1042 226 1014 b 250 946 226 972 236 958 l 344 857 b 442 819 376 826 403 819 z "},"ˆ":{"ha":694,"x_min":0,"x_max":0,"o":"m 436 919 l 489 857 b 581 819 518 826 542 819 b 629 847 603 819 624 829 b 622 881 632 857 628 869 l 565 996 b 497 1036 553 1021 536 1036 l 447 1036 b 354 996 408 1036 382 1021 l 228 881 b 201 847 217 869 204 857 b 231 819 196 829 210 819 b 344 857 269 819 300 826 z "},"¨":{"ha":694,"x_min":0,"x_max":0,"o":"m 571 1000 b 461 914 519 1000 471 964 l 460 904 b 533 819 449 854 482 819 b 642 904 583 819 631 854 l 643 914 b 571 1000 653 964 621 1000 z m 294 1000 b 185 914 243 1000 194 964 l 183 904 b 257 819 172 854 206 819 b 365 904 307 819 354 854 l 367 914 b 294 1000 376 964 344 1000 z "},"…":{"ha":944,"x_min":0,"x_max":0,"o":"m 251 69 b 183 138 251 107 221 138 b 114 69 147 138 114 107 b 183 0 114 33 147 0 b 251 69 221 0 251 33 z m 554 69 b 486 138 554 107 524 138 b 417 69 450 138 417 107 b 486 0 417 33 450 0 b 554 69 524 0 554 33 z m 857 69 b 789 138 857 107 826 138 b 719 69 753 138 719 107 b 789 0 719 33 753 0 b 857 69 826 0 857 33 z "},"À":{"ha":1097,"x_min":0,"x_max":0,"o":"m 333 229 l 672 229 l 708 50 b 771 0 714 19 740 0 b 799 4 781 0 789 1 b 861 104 842 19 869 64 l 699 922 b 633 972 692 954 665 972 b 551 922 601 972 568 954 l 100 104 b 126 4 78 64 90 19 b 153 0 135 1 144 0 b 233 50 185 0 217 19 l 333 229 z m 418 382 l 582 681 l 642 382 l 418 382 z m 765 1097 b 808 1126 790 1097 808 1108 b 796 1157 808 1136 801 1149 l 717 1279 b 650 1319 701 1304 679 1319 b 550 1265 606 1319 550 1292 b 574 1224 550 1250 560 1236 l 668 1135 b 765 1097 700 1104 726 1097 z "},"´":{"ha":694,"x_min":0,"x_max":0,"o":"m 321 819 b 419 857 360 819 386 826 l 513 946 b 536 988 526 958 536 972 b 436 1042 536 1014 481 1042 b 369 1001 407 1042 385 1026 l 290 879 b 279 849 285 871 279 858 b 321 819 279 831 297 819 z "},"¸":{"ha":694,"x_min":0,"x_max":0,"o":"m 472 14 l 346 14 l 247 -129 b 236 -161 240 -139 236 -150 b 333 -222 236 -190 300 -222 b 388 -182 363 -222 376 -208 z "},"ç":{"ha":793,"x_min":0,"x_max":0,"o":""},"Ç":{"ha":1025,"x_min":0,"x_max":0,"o":"m 561 0 b 561 0 561 0 561 0 b 888 106 676 0 792 39 b 921 213 926 131 940 179 b 815 226 900 246 853 253 b 588 154 749 181 669 154 b 361 251 492 154 413 192 b 303 486 310 313 286 394 b 444 721 318 578 371 660 b 704 818 517 781 610 818 b 907 746 786 818 856 790 b 1017 758 936 719 985 725 b 1022 867 1049 792 1051 840 b 732 972 950 933 849 972 b 149 486 458 972 197 756 b 561 0 101 215 288 0 z m 643 14 l 517 14 l 418 -129 b 407 -161 411 -139 407 -150 b 504 -222 407 -190 471 -222 b 558 -182 533 -222 547 -208 z "},"‚":{"ha":319,"x_min":0,"x_max":0,"o":"m 75 -162 b 118 -201 75 -183 89 -201 b 249 -142 157 -201 211 -178 b 317 61 292 -97 317 -33 l 317 76 b 217 199 317 151 279 199 b 122 106 160 199 122 158 l 122 94 b 201 0 122 44 161 11 b 107 -125 204 -61 171 -104 b 75 -162 89 -129 75 -143 z "},"„":{"ha":569,"x_min":0,"x_max":0,"o":"m 75 -162 b 118 -201 75 -183 89 -201 b 249 -142 157 -201 211 -178 b 317 61 292 -97 317 -33 l 317 76 b 217 199 317 151 279 199 b 122 106 160 199 122 158 l 122 94 b 201 0 122 44 161 11 b 107 -125 204 -61 171 -104 b 75 -162 89 -129 75 -143 z m 396 -162 b 439 -201 396 -183 410 -201 b 569 -142 479 -201 533 -178 b 639 61 614 -97 639 -33 l 639 76 b 539 199 639 150 600 199 b 444 106 482 199 444 158 l 444 94 b 524 0 444 44 483 11 b 429 -125 526 -61 493 -104 b 396 -162 410 -129 396 -143 z "},"ƒ":{"ha":703,"x_min":0,"x_max":0,"o":"m 168 -10 b 400 199 296 -10 374 50 l 453 494 l 590 494 b 661 564 631 494 661 525 b 590 635 661 603 631 635 l 478 635 l 494 731 b 607 839 508 807 542 839 b 640 836 621 839 635 836 b 710 906 679 836 710 867 b 647 976 710 944 681 972 b 575 981 624 979 601 981 b 332 765 425 981 358 906 l 307 635 l 236 635 b 165 564 197 635 165 603 b 236 494 165 525 197 494 l 283 494 l 235 224 b 147 131 224 163 197 135 b 78 61 106 128 78 99 b 168 -10 78 18 111 -10 z "},"™":{"ha":958,"x_min":0,"x_max":0,"o":"m 33 940 b 60 908 31 922 43 908 l 156 908 l 100 590 b 125 557 96 572 108 557 b 165 590 144 557 161 572 l 221 908 l 315 908 b 354 940 332 908 350 922 b 326 974 356 958 344 974 l 74 974 b 33 940 54 974 38 958 z m 532 961 b 508 974 528 971 518 975 b 507 974 507 974 507 974 b 507 974 507 974 507 974 b 507 974 507 974 507 974 b 468 942 489 974 472 960 l 407 592 b 433 558 404 572 415 558 b 474 592 453 558 469 572 l 517 840 l 581 722 b 606 708 586 713 596 708 b 606 708 606 708 606 708 b 607 708 607 708 607 708 b 636 722 617 708 628 713 l 742 840 l 699 592 b 726 558 696 572 708 558 b 764 592 744 558 761 572 l 826 942 b 800 974 829 960 818 974 b 800 974 800 974 800 974 b 800 974 800 974 800 974 b 800 974 800 974 800 974 b 769 961 788 975 778 971 l 622 796 l 532 961 z "},"˜":{"ha":694,"x_min":0,"x_max":0,"o":"m 243 838 b 307 882 260 868 275 882 b 507 826 357 882 431 826 b 649 953 581 826 619 872 b 654 985 651 963 654 976 b 603 1031 654 1008 631 1031 b 557 1003 582 1031 567 1018 b 493 958 540 972 525 958 b 293 1014 443 958 369 1014 b 151 888 219 1014 181 968 b 146 856 149 878 146 864 b 197 810 146 832 169 810 b 243 838 219 810 233 822 z "},"Â":{"ha":1097,"x_min":0,"x_max":0,"o":"m 333 229 l 672 229 l 708 50 b 771 0 714 19 740 0 b 799 4 781 0 789 1 b 861 104 842 19 869 64 l 699 922 b 633 972 692 954 665 972 b 551 922 601 972 568 954 l 100 104 b 126 4 78 64 90 19 b 153 0 135 1 144 0 b 233 50 185 0 217 19 l 333 229 z m 418 382 l 582 681 l 642 382 l 418 382 z m 708 1197 l 761 1135 b 853 1097 790 1104 814 1097 b 901 1125 875 1097 896 1107 b 894 1158 904 1135 900 1147 l 838 1274 b 769 1314 825 1299 808 1314 l 719 1314 b 626 1274 681 1314 654 1299 l 500 1158 b 474 1125 489 1147 476 1135 b 503 1097 468 1107 482 1097 b 617 1135 542 1097 572 1104 z "},"Ã":{"ha":1097,"x_min":0,"x_max":0,"o":"m 333 229 l 672 229 l 708 50 b 771 0 714 19 740 0 b 799 4 781 0 789 1 b 861 104 842 19 869 64 l 699 922 b 633 972 692 954 665 972 b 551 922 601 972 568 954 l 100 104 b 126 4 78 64 90 19 b 153 0 135 1 144 0 b 233 50 185 0 217 19 l 333 229 z m 418 382 l 582 681 l 642 382 l 418 382 z m 554 1115 b 618 1160 571 1146 586 1160 b 818 1104 668 1160 742 1104 b 960 1231 892 1104 931 1150 b 965 1263 963 1240 965 1254 b 914 1308 965 1286 942 1308 b 868 1281 893 1308 878 1296 b 804 1236 851 1250 836 1236 b 604 1292 754 1236 681 1292 b 463 1165 531 1292 492 1246 b 457 1133 460 1156 457 1142 b 508 1088 457 1110 481 1088 b 554 1115 531 1088 544 1100 z "},"Ä":{"ha":1097,"x_min":0,"x_max":0,"o":"m 333 229 l 672 229 l 708 50 b 771 0 714 19 740 0 b 799 4 781 0 789 1 b 861 104 842 19 869 64 l 699 922 b 633 972 692 954 665 972 b 551 922 601 972 568 954 l 100 104 b 126 4 78 64 90 19 b 153 0 135 1 144 0 b 233 50 185 0 217 19 l 333 229 z m 418 382 l 582 681 l 642 382 l 418 382 z m 843 1278 b 733 1192 792 1278 743 1242 l 732 1182 b 806 1097 721 1132 754 1097 b 914 1182 856 1097 903 1132 l 915 1192 b 843 1278 925 1242 893 1278 z m 567 1278 b 457 1192 515 1278 467 1242 l 456 1182 b 529 1097 444 1132 478 1097 b 638 1182 579 1097 626 1132 l 639 1192 b 567 1278 649 1242 617 1278 z "},"Å":{"ha":1097,"x_min":0,"x_max":0,"o":"m 443 382 l 608 681 l 668 382 l 443 382 z m 735 49 b 796 0 740 18 765 0 b 824 4 806 0 817 1 b 888 104 867 19 894 64 l 733 874 b 843 1017 789 904 833 957 l 844 1019 b 697 1190 861 1113 790 1190 b 489 1019 604 1190 506 1113 l 488 1017 b 549 872 478 957 504 903 l 126 104 b 154 4 106 64 117 19 b 179 0 163 1 169 0 b 261 49 210 0 243 18 l 360 229 l 697 229 l 735 49 z m 654 951 b 599 1017 617 951 593 981 l 600 1019 b 678 1085 606 1056 640 1085 b 733 1019 715 1085 739 1056 l 732 1017 b 654 951 726 981 692 951 z "},"°":{"ha":625,"x_min":0,"x_max":0,"o":"m 335 529 b 565 754 456 529 565 633 l 565 757 b 335 981 565 878 456 981 b 103 757 213 981 103 878 l 103 754 b 335 529 103 633 213 529 z m 335 621 b 203 754 258 621 203 683 l 203 757 b 335 889 203 828 258 889 b 465 757 410 889 465 828 l 465 754 b 335 621 465 683 410 621 z "},"È":{"ha":931,"x_min":0,"x_max":0,"o":"m 215 -3 b 215 -3 215 -3 215 -3 b 217 -3 217 -3 217 -3 l 668 -3 b 758 74 710 -3 750 32 b 694 151 765 117 738 151 l 318 151 l 364 407 l 688 407 b 778 483 731 407 771 440 b 715 560 786 526 757 560 l 390 560 l 436 815 l 813 815 b 903 893 854 815 894 850 b 839 969 910 935 882 969 l 389 969 b 388 969 389 969 388 969 b 386 969 388 969 386 969 b 296 893 343 969 303 935 l 151 74 b 215 -3 144 32 172 -3 z m 688 1097 b 731 1126 713 1097 731 1108 b 718 1157 731 1136 724 1149 l 639 1279 b 572 1319 624 1304 601 1319 b 472 1265 528 1319 472 1292 b 496 1224 472 1250 482 1236 l 590 1135 b 688 1097 622 1104 649 1097 z "},"É":{"ha":931,"x_min":0,"x_max":0,"o":"m 215 -3 b 215 -3 215 -3 215 -3 b 217 -3 217 -3 217 -3 l 668 -3 b 758 74 710 -3 750 32 b 694 151 765 117 738 151 l 318 151 l 364 407 l 688 407 b 778 483 731 407 771 440 b 715 560 786 526 757 560 l 390 560 l 436 815 l 813 815 b 903 893 854 815 894 850 b 839 969 910 935 882 969 l 389 969 b 388 969 389 969 388 969 b 386 969 388 969 386 969 b 296 893 343 969 303 935 l 151 74 b 215 -3 144 32 172 -3 z m 569 1097 b 668 1135 608 1097 635 1104 l 761 1224 b 785 1265 775 1236 785 1250 b 685 1319 785 1292 729 1319 b 618 1279 656 1319 633 1304 l 539 1157 b 528 1126 533 1149 528 1136 b 569 1097 528 1108 546 1097 z "},"Ê":{"ha":931,"x_min":0,"x_max":0,"o":"m 215 -3 b 215 -3 215 -3 215 -3 b 217 -3 217 -3 217 -3 l 668 -3 b 758 74 710 -3 750 32 b 694 151 765 117 738 151 l 318 151 l 364 407 l 688 407 b 778 483 731 407 771 440 b 715 560 786 526 757 560 l 390 560 l 436 815 l 813 815 b 903 893 854 815 894 850 b 839 969 910 935 882 969 l 389 969 b 388 969 389 969 388 969 b 386 969 388 969 386 969 b 296 893 343 969 303 935 l 151 74 b 215 -3 144 32 172 -3 z m 701 1197 l 754 1135 b 846 1097 783 1104 807 1097 b 894 1125 868 1097 889 1107 b 888 1158 897 1135 893 1147 l 831 1274 b 763 1314 818 1299 801 1314 l 713 1314 b 619 1274 674 1314 647 1299 l 493 1158 b 467 1125 482 1147 469 1135 b 496 1097 461 1107 475 1097 b 610 1135 535 1097 565 1104 z "},"Ë":{"ha":931,"x_min":0,"x_max":0,"o":"m 215 -3 b 215 -3 215 -3 215 -3 b 217 -3 217 -3 217 -3 l 668 -3 b 758 74 710 -3 750 32 b 694 151 765 117 738 151 l 318 151 l 364 407 l 688 407 b 778 483 731 407 771 440 b 715 560 786 526 757 560 l 390 560 l 436 815 l 813 815 b 903 893 854 815 894 850 b 839 969 910 935 882 969 l 389 969 b 388 969 389 969 388 969 b 386 969 388 969 386 969 b 296 893 343 969 303 935 l 151 74 b 215 -3 144 32 172 -3 z m 818 1278 b 708 1192 767 1278 718 1242 l 707 1182 b 781 1097 696 1132 729 1097 b 889 1182 831 1097 878 1132 l 890 1192 b 818 1278 900 1242 868 1278 z m 542 1278 b 432 1192 490 1278 442 1242 l 431 1182 b 504 1097 419 1132 453 1097 b 613 1182 554 1097 601 1132 l 614 1192 b 542 1278 624 1242 592 1278 z "},"Ì":{"ha":381,"x_min":0,"x_max":0,"o":"m 182 75 l 326 894 b 263 971 333 936 306 971 b 172 894 221 971 181 936 l 28 75 b 92 -1 21 33 49 -1 b 182 75 133 -1 175 33 z m 378 1097 b 421 1126 403 1097 421 1108 b 408 1157 421 1136 414 1149 l 329 1279 b 263 1319 314 1304 292 1319 b 163 1265 218 1319 163 1292 b 186 1224 163 1250 172 1236 l 281 1135 b 378 1097 313 1104 339 1097 z "},"Í":{"ha":381,"x_min":0,"x_max":0,"o":"m 315 75 l 460 894 b 396 971 467 936 439 971 b 306 894 354 971 314 936 l 161 75 b 225 -1 154 33 182 -1 b 315 75 267 -1 308 33 z m 303 1097 b 401 1135 342 1097 368 1104 l 494 1224 b 518 1265 508 1236 518 1250 b 418 1319 518 1292 463 1319 b 351 1279 389 1319 367 1304 l 272 1157 b 261 1126 267 1149 261 1136 b 303 1097 261 1108 279 1097 z "},"Î":{"ha":381,"x_min":0,"x_max":0,"o":"m 206 75 l 350 894 b 286 971 357 936 329 971 b 196 894 244 971 204 936 l 51 75 b 115 -1 44 33 72 -1 b 206 75 157 -1 199 33 z m 307 1197 l 360 1135 b 451 1097 389 1104 413 1097 b 500 1125 474 1097 494 1107 b 493 1158 503 1135 499 1147 l 436 1274 b 368 1314 424 1299 407 1314 l 318 1314 b 225 1274 279 1314 253 1299 l 99 1158 b 72 1125 88 1147 75 1135 b 101 1097 67 1107 81 1097 b 215 1135 140 1097 171 1104 z "},"Ï":{"ha":381,"x_min":0,"x_max":0,"o":"m 217 75 l 361 894 b 297 971 368 936 340 971 b 207 894 256 971 215 936 l 63 75 b 126 -1 56 33 83 -1 b 217 75 168 -1 210 33 z m 500 1278 b 390 1192 449 1278 400 1242 l 389 1182 b 463 1097 378 1132 411 1097 b 571 1182 513 1097 560 1132 l 572 1192 b 500 1278 582 1242 550 1278 z m 224 1278 b 114 1192 172 1278 124 1242 l 113 1182 b 186 1097 101 1132 135 1097 b 294 1182 236 1097 283 1132 l 296 1192 b 224 1278 306 1242 274 1278 z "},"Ñ":{"ha":1097,"x_min":0,"x_max":0,"o":""},"Ò":{"ha":1181,"x_min":0,"x_max":0,"o":""},"Ó":{"ha":1181,"x_min":0,"x_max":0,"o":"m 501 -1 b 501 -1 501 -1 501 -1 b 856 143 631 -1 757 54 b 1049 485 954 231 1026 351 b 976 826 1072 617 1043 739 b 674 971 908 915 801 971 b 319 826 544 971 418 915 b 125 485 221 739 149 617 b 199 143 101 351 131 231 b 501 -1 265 54 372 -1 z m 413 721 b 646 817 479 781 563 817 b 846 721 729 817 800 781 b 896 485 892 661 913 578 b 763 247 879 392 829 308 b 529 151 694 188 613 153 b 329 247 444 153 375 188 b 279 485 283 308 263 392 b 413 721 296 578 346 661 z m 565 1097 b 664 1135 604 1097 631 1104 l 757 1224 b 781 1265 771 1236 781 1250 b 681 1319 781 1292 725 1319 b 614 1279 651 1319 629 1304 l 535 1157 b 524 1126 529 1149 524 1136 b 565 1097 524 1108 542 1097 z "},"Ô":{"ha":1181,"x_min":0,"x_max":0,"o":""},"Õ":{"ha":1181,"x_min":0,"x_max":0,"o":"m 501 -1 b 501 -1 501 -1 501 -1 b 856 143 631 -1 757 54 b 1049 485 954 231 1026 351 b 976 826 1072 617 1043 739 b 674 971 908 915 801 971 b 319 826 544 971 418 915 b 125 485 221 739 149 617 b 199 143 101 351 131 231 b 501 -1 265 54 372 -1 z m 413 721 b 646 817 479 781 563 817 b 846 721 729 817 800 781 b 896 485 892 661 913 578 b 763 247 879 392 829 308 b 529 151 694 188 613 153 b 329 247 444 153 375 188 b 279 485 283 308 263 392 b 413 721 296 578 346 661 z m 610 1115 b 674 1160 626 1146 642 1160 b 874 1104 724 1160 797 1104 b 1015 1231 947 1104 986 1150 b 1021 1263 1018 1240 1021 1254 b 969 1308 1021 1286 997 1308 b 924 1281 949 1308 933 1296 b 860 1236 907 1250 892 1236 b 660 1292 810 1236 736 1292 b 518 1165 586 1292 547 1246 b 513 1133 515 1156 513 1142 b 564 1088 513 1110 536 1088 b 610 1115 586 1088 600 1100 z "},"Ö":{"ha":1181,"x_min":0,"x_max":0,"o":""},"Ù":{"ha":1056,"x_min":0,"x_max":0,"o":"m 994 972 b 904 896 953 972 911 939 l 817 401 b 525 154 793 265 663 154 b 321 401 389 154 297 265 l 408 896 b 346 972 417 939 388 972 b 254 896 303 972 263 939 l 168 401 b 499 0 129 181 276 0 b 971 401 721 0 932 181 l 1058 896 b 994 972 1065 939 1038 972 z m 761 1097 b 804 1126 786 1097 804 1108 b 792 1157 804 1136 797 1149 l 713 1279 b 646 1319 697 1304 675 1319 b 546 1265 601 1319 546 1292 b 569 1224 546 1250 556 1236 l 664 1135 b 761 1097 696 1104 722 1097 z "},"Ú":{"ha":1056,"x_min":0,"x_max":0,"o":"m 994 972 b 904 896 953 972 911 939 l 817 401 b 525 154 793 265 663 154 b 321 401 389 154 297 265 l 408 896 b 346 972 417 939 388 972 b 254 896 303 972 263 939 l 168 401 b 499 0 129 181 276 0 b 971 401 721 0 932 181 l 1058 896 b 994 972 1065 939 1038 972 z m 650 1097 b 749 1135 689 1097 715 1104 l 842 1224 b 865 1265 856 1236 865 1250 b 765 1319 865 1292 810 1319 b 699 1279 736 1319 714 1304 l 619 1157 b 608 1126 614 1149 608 1136 b 650 1097 608 1108 626 1097 z "},"Û":{"ha":1056,"x_min":0,"x_max":0,"o":"m 994 972 b 904 896 953 972 911 939 l 817 401 b 525 154 793 265 663 154 b 321 401 389 154 297 265 l 408 896 b 346 972 417 939 388 972 b 254 896 303 972 263 939 l 168 401 b 499 0 129 181 276 0 b 971 401 721 0 932 181 l 1058 896 b 994 972 1065 939 1038 972 z m 774 1197 l 826 1135 b 918 1097 856 1104 879 1097 b 967 1125 940 1097 961 1107 b 960 1158 969 1135 965 1147 l 903 1274 b 835 1314 890 1299 874 1314 l 785 1314 b 692 1274 746 1314 719 1299 l 565 1158 b 539 1125 554 1147 542 1135 b 568 1097 533 1107 547 1097 b 682 1135 607 1097 638 1104 z "},"Ü":{"ha":1056,"x_min":0,"x_max":0,"o":"m 994 972 b 904 896 953 972 911 939 l 817 401 b 525 154 793 265 663 154 b 321 401 389 154 297 265 l 408 896 b 346 972 417 939 388 972 b 254 896 303 972 263 939 l 168 401 b 499 0 129 181 276 0 b 971 401 721 0 932 181 l 1058 896 b 994 972 1065 939 1038 972 z m 881 1278 b 771 1192 829 1278 781 1242 l 769 1182 b 843 1097 758 1132 792 1097 b 951 1182 893 1097 940 1132 l 953 1192 b 881 1278 963 1242 931 1278 z m 604 1278 b 494 1192 553 1278 504 1242 l 493 1182 b 567 1097 482 1132 515 1097 b 675 1182 617 1097 664 1132 l 676 1192 b 604 1278 686 1242 654 1278 z "},"Ý":{"ha":994,"x_min":0,"x_max":0,"o":"m 822 849 b 824 956 853 883 854 931 b 714 939 794 981 744 974 l 417 611 l 235 939 b 129 956 215 974 168 981 b 94 849 92 931 75 883 l 313 456 l 244 75 b 308 -1 238 33 265 -1 b 399 75 350 -1 392 33 l 465 456 l 822 849 z m 519 1097 b 618 1135 558 1097 585 1104 l 711 1224 b 735 1265 725 1236 735 1250 b 635 1319 735 1292 679 1319 b 568 1279 606 1319 583 1304 l 489 1157 b 478 1126 483 1149 478 1136 b 519 1097 478 1108 496 1097 z "},"à":{"ha":797,"x_min":0,"x_max":0,"o":"m 374 1 b 374 1 374 1 374 1 b 568 61 442 1 510 25 b 631 1 569 28 593 1 b 717 76 671 1 708 35 l 811 619 b 751 693 819 661 793 693 b 669 635 715 693 682 668 b 496 693 624 671 564 693 b 242 592 404 693 313 654 b 106 347 172 528 121 442 b 157 104 88 254 110 168 b 374 1 204 42 282 1 z m 332 490 b 469 547 372 525 419 547 b 586 490 519 547 560 525 b 617 347 614 454 628 404 b 536 206 607 292 578 242 b 400 149 497 169 449 149 b 282 206 350 149 308 169 b 251 347 254 242 242 292 b 332 490 261 404 292 454 z m 689 819 b 732 849 714 819 732 831 b 719 879 732 858 725 871 l 640 1001 b 574 1042 625 1026 603 1042 b 474 988 529 1042 474 1014 b 497 946 474 972 483 958 l 592 857 b 689 819 624 826 650 819 z "},"á":{"ha":797,"x_min":0,"x_max":0,"o":"m 374 1 b 374 1 374 1 374 1 b 568 61 442 1 510 25 b 631 1 569 28 593 1 b 717 76 671 1 708 35 l 811 619 b 751 693 819 661 793 693 b 669 635 715 693 682 668 b 496 693 624 671 564 693 b 242 592 404 693 313 654 b 106 347 172 528 121 442 b 157 104 88 254 110 168 b 374 1 204 42 282 1 z m 332 490 b 469 547 372 525 419 547 b 586 490 519 547 560 525 b 617 347 614 454 628 404 b 536 206 607 292 578 242 b 400 149 497 169 449 149 b 282 206 350 149 308 169 b 251 347 254 242 242 292 b 332 490 261 404 292 454 z m 525 819 b 624 857 564 819 590 826 l 717 946 b 740 988 731 958 740 972 b 640 1042 740 1014 685 1042 b 574 1001 611 1042 589 1026 l 494 879 b 483 849 489 871 483 858 b 525 819 483 831 501 819 z "},"â":{"ha":797,"x_min":0,"x_max":0,"o":"m 374 1 b 374 1 374 1 374 1 b 568 61 442 1 510 25 b 631 1 569 28 593 1 b 717 76 671 1 708 35 l 811 619 b 751 693 819 661 793 693 b 669 635 715 693 682 668 b 496 693 624 671 564 693 b 242 592 404 693 313 654 b 106 347 172 528 121 442 b 157 104 88 254 110 168 b 374 1 204 42 282 1 z m 332 490 b 469 547 372 525 419 547 b 586 490 519 547 560 525 b 617 347 614 454 628 404 b 536 206 607 292 578 242 b 400 149 497 169 449 149 b 282 206 350 149 308 169 b 251 347 254 242 242 292 b 332 490 261 404 292 454 z m 689 919 l 742 857 b 833 819 771 826 794 819 b 882 847 856 819 876 829 b 875 881 885 857 881 869 l 818 996 b 750 1036 806 1021 789 1036 l 700 1036 b 607 996 661 1036 635 1021 l 481 881 b 454 847 469 869 457 857 b 483 819 449 829 463 819 b 597 857 522 819 553 826 z "},"ã":{"ha":797,"x_min":0,"x_max":0,"o":"m 374 1 b 374 1 374 1 374 1 b 568 61 442 1 510 25 b 631 1 569 28 593 1 b 717 76 671 1 708 35 l 811 619 b 751 693 819 661 793 693 b 669 635 715 693 682 668 b 496 693 624 671 564 693 b 242 592 404 693 313 654 b 106 347 172 528 121 442 b 157 104 88 254 110 168 b 374 1 204 42 282 1 z m 332 490 b 469 547 372 525 419 547 b 586 490 519 547 560 525 b 617 347 614 454 628 404 b 536 206 607 292 578 242 b 400 149 497 169 449 149 b 282 206 350 149 308 169 b 251 347 254 242 242 292 b 332 490 261 404 292 454 z m 500 838 b 564 882 517 868 532 882 b 764 826 614 882 688 826 b 906 953 838 826 876 872 b 911 985 908 963 911 976 b 860 1031 911 1008 888 1031 b 814 1003 839 1031 824 1018 b 750 958 797 972 782 958 b 550 1014 700 958 626 1014 b 408 888 476 1014 438 968 b 403 856 406 878 403 864 b 454 810 403 832 426 810 b 500 838 476 810 490 822 z "},"ä":{"ha":797,"x_min":0,"x_max":0,"o":"m 374 1 b 374 1 374 1 374 1 b 568 61 442 1 510 25 b 631 1 569 28 593 1 b 717 76 671 1 708 35 l 811 619 b 751 693 819 661 793 693 b 669 635 715 693 682 668 b 496 693 624 671 564 693 b 242 592 404 693 313 654 b 106 347 172 528 121 442 b 157 104 88 254 110 168 b 374 1 204 42 282 1 z m 332 490 b 469 547 372 525 419 547 b 586 490 519 547 560 525 b 617 347 614 454 628 404 b 536 206 607 292 578 242 b 400 149 497 169 449 149 b 282 206 350 149 308 169 b 251 347 254 242 242 292 b 332 490 261 404 292 454 z m 861 1000 b 751 914 810 1000 761 964 l 750 904 b 824 819 739 854 772 819 b 932 904 874 819 921 854 l 933 914 b 861 1000 943 964 911 1000 z m 585 1000 b 475 914 533 1000 485 964 l 474 904 b 547 819 463 854 496 819 b 656 904 597 819 644 854 l 657 914 b 585 1000 667 964 635 1000 z "},"å":{"ha":797,"x_min":0,"x_max":0,"o":"m 558 792 b 767 963 651 792 750 871 l 767 965 b 619 1136 783 1058 713 1136 b 411 965 526 1136 428 1058 l 411 963 b 558 792 394 871 465 792 l 558 792 z m 576 897 b 522 963 539 897 515 926 l 522 965 b 600 1031 529 1001 563 1031 b 656 965 638 1031 663 1001 l 656 963 b 576 897 649 926 614 897 z m 357 1 b 357 1 357 1 357 1 b 551 61 425 1 493 25 b 614 1 553 28 576 1 b 700 76 654 1 692 35 l 794 619 b 735 693 803 661 776 693 b 653 635 699 693 665 668 b 479 693 607 671 547 693 b 225 592 388 693 296 654 b 89 347 156 528 104 442 b 140 104 71 254 93 168 b 357 1 188 42 265 1 z m 315 490 b 453 547 356 525 403 547 b 569 490 503 547 543 525 b 600 347 597 454 611 404 b 519 206 590 292 561 242 b 383 149 481 169 432 149 b 265 206 333 149 292 169 b 235 347 238 242 225 292 b 315 490 244 404 275 454 z "},"æ":{"ha":1325,"x_min":0,"x_max":0,"o":"m 918 0 b 1210 110 1044 0 1125 29 b 1215 203 1236 136 1239 176 b 1114 200 1213 206 1167 251 b 944 146 1067 157 999 142 b 819 210 896 150 843 176 b 789 303 800 233 789 271 l 1240 303 b 1325 360 1279 303 1314 326 b 1328 372 1326 363 1328 369 b 1329 381 1329 375 1329 378 b 1047 708 1353 571 1232 708 b 811 626 961 708 879 676 l 813 635 b 751 710 821 676 793 710 b 667 650 714 710 679 685 b 489 710 619 688 558 710 b 229 606 394 710 301 669 b 89 356 157 540 106 453 b 142 107 71 260 93 172 b 364 1 190 43 269 1 b 563 63 433 1 503 25 b 626 1 564 28 589 1 b 715 78 668 1 707 36 l 715 79 b 918 0 765 29 835 0 z m 321 501 b 463 560 363 538 411 560 b 582 501 513 560 554 538 b 613 356 610 465 624 414 b 531 211 603 299 572 247 b 390 153 490 174 440 153 b 269 211 340 153 297 174 b 239 356 242 247 229 299 b 321 501 249 414 281 465 z m 1022 574 b 1204 424 1144 564 1201 481 l 803 424 b 1022 574 825 482 900 568 z "},"è":{"ha":811,"x_min":0,"x_max":0,"o":"m 393 0 b 679 107 518 0 596 29 b 685 199 706 133 708 172 b 585 196 682 201 638 246 b 419 143 539 154 472 139 b 297 206 372 147 319 172 b 267 297 278 229 267 265 l 710 297 b 792 353 747 297 782 319 b 794 365 793 356 794 363 b 794 365 794 365 794 365 b 794 365 794 365 794 365 b 796 372 796 367 796 369 b 519 694 819 560 701 694 b 119 347 329 694 154 536 b 393 0 85 158 203 1 z m 496 563 b 674 415 615 553 671 471 l 281 415 b 496 563 303 472 376 557 z m 718 819 b 761 849 743 819 761 831 b 749 879 761 858 754 871 l 669 1001 b 603 1042 654 1026 632 1042 b 503 988 558 1042 503 1014 b 526 946 503 972 513 958 l 621 857 b 718 819 653 826 679 819 z "},"é":{"ha":811,"x_min":0,"x_max":0,"o":"m 393 0 b 679 107 518 0 596 29 b 685 199 706 133 708 172 b 585 196 682 201 638 246 b 419 143 539 154 472 139 b 297 206 372 147 319 172 b 267 297 278 229 267 265 l 710 297 b 792 353 747 297 782 319 b 794 365 793 356 794 363 b 794 365 794 365 794 365 b 794 365 794 365 794 365 b 796 372 796 367 796 369 b 519 694 819 560 701 694 b 119 347 329 694 154 536 b 393 0 85 158 203 1 z m 496 563 b 674 415 615 553 671 471 l 281 415 b 496 563 303 472 376 557 z m 489 819 b 588 857 528 819 554 826 l 681 946 b 704 988 694 958 704 972 b 604 1042 704 1014 649 1042 b 538 1001 575 1042 553 1026 l 458 879 b 447 849 453 871 447 858 b 489 819 447 831 465 819 z "},"ê":{"ha":811,"x_min":0,"x_max":0,"o":"m 393 0 b 679 107 518 0 596 29 b 685 199 706 133 708 172 b 585 196 682 201 638 246 b 419 143 539 154 472 139 b 297 206 372 147 319 172 b 267 297 278 229 267 265 l 710 297 b 792 353 747 297 782 319 b 794 365 793 356 794 363 b 794 365 794 365 794 365 b 794 365 794 365 794 365 b 796 372 796 367 796 369 b 519 694 819 560 701 694 b 119 347 329 694 154 536 b 393 0 85 158 203 1 z m 496 563 b 674 415 615 553 671 471 l 281 415 b 496 563 303 472 376 557 z m 622 919 l 675 857 b 767 819 704 826 728 819 b 815 847 789 819 810 829 b 808 881 818 857 814 869 l 751 996 b 683 1036 739 1021 722 1036 l 633 1036 b 540 996 594 1036 568 1021 l 414 881 b 388 847 403 869 390 857 b 417 819 382 829 396 819 b 531 857 456 819 486 826 z "},"ë":{"ha":811,"x_min":0,"x_max":0,"o":"m 393 0 b 679 107 518 0 596 29 b 685 199 706 133 708 172 b 585 196 682 201 638 246 b 419 143 539 154 472 139 b 297 206 372 147 319 172 b 267 297 278 229 267 265 l 710 297 b 792 353 747 297 782 319 b 794 365 793 356 794 363 b 794 365 794 365 794 365 b 794 365 794 365 794 365 b 796 372 796 367 796 369 b 519 694 819 560 701 694 b 119 347 329 694 154 536 b 393 0 85 158 203 1 z m 496 563 b 674 415 615 553 671 471 l 281 415 b 496 563 303 472 376 557 z m 785 1000 b 675 914 733 1000 685 964 l 674 904 b 747 819 663 854 696 819 b 856 904 797 819 844 854 l 857 914 b 785 1000 867 964 835 1000 z m 508 1000 b 399 914 457 1000 408 964 l 397 904 b 471 819 386 854 419 819 b 579 904 521 819 568 854 l 581 914 b 508 1000 590 964 558 1000 z "},"ì":{"ha":346,"x_min":0,"x_max":0,"o":"m 10 75 b 74 -1 3 33 31 -1 b 164 75 117 -1 157 33 l 264 644 b 201 721 272 686 243 721 b 111 644 158 721 118 686 l 10 75 z m 281 819 b 324 849 306 819 324 831 b 311 879 324 858 317 871 l 232 1001 b 165 1042 217 1026 194 1042 b 65 988 121 1042 65 1014 b 89 946 65 972 75 958 l 183 857 b 281 819 215 826 242 819 z "},"í":{"ha":346,"x_min":0,"x_max":0,"o":"m 146 75 b 210 -1 139 33 167 -1 b 300 75 253 -1 293 33 l 400 644 b 338 721 408 686 379 721 b 247 644 294 721 254 686 l 146 75 z m 293 819 b 392 857 332 819 358 826 l 485 946 b 508 988 499 958 508 972 b 408 1042 508 1014 453 1042 b 342 1001 379 1042 357 1026 l 263 879 b 251 849 257 871 251 858 b 293 819 251 831 269 819 z "},"ï":{"ha":346,"x_min":0,"x_max":0,"o":"m 17 75 b 81 -1 10 33 38 -1 b 171 75 124 -1 164 33 l 271 644 b 208 721 279 686 250 721 b 118 644 165 721 125 686 l 17 75 z m 433 1000 b 324 914 382 1000 333 964 l 322 904 b 396 819 311 854 344 819 b 504 904 446 819 493 854 l 506 914 b 433 1000 515 964 483 1000 z m 157 1000 b 47 914 106 1000 57 964 l 46 904 b 119 819 35 854 68 819 b 228 904 169 819 217 854 l 229 914 b 157 1000 239 964 207 1000 z "},"ñ":{"ha":851,"x_min":0,"x_max":0,"o":""},"ò":{"ha":889,"x_min":0,"x_max":0,"o":"m 490 694 b 235 590 397 694 306 653 b 97 346 165 526 114 440 b 149 101 81 250 101 164 b 368 -3 199 38 275 -3 b 368 -3 368 -3 368 -3 b 622 101 461 -3 553 38 b 761 346 693 164 744 250 b 710 590 778 440 757 526 b 490 694 660 653 583 694 z m 614 346 b 533 203 603 289 572 238 b 393 144 492 167 443 144 b 275 203 344 144 303 167 b 244 346 247 238 235 289 b 325 488 256 401 286 453 b 465 546 367 525 414 546 b 582 488 514 546 556 525 b 614 346 611 453 624 401 l 614 346 z m 663 819 b 706 849 688 819 706 831 b 693 879 706 858 699 871 l 614 1001 b 547 1042 599 1026 576 1042 b 447 988 503 1042 447 1014 b 471 946 447 972 457 958 l 565 857 b 663 819 597 826 624 819 z "},"ó":{"ha":889,"x_min":0,"x_max":0,"o":"m 490 694 b 235 590 397 694 306 653 b 97 346 165 526 114 440 b 149 101 81 250 101 164 b 368 -3 199 38 275 -3 b 368 -3 368 -3 368 -3 b 622 101 461 -3 553 38 b 761 346 693 164 744 250 b 710 590 778 440 757 526 b 490 694 660 653 583 694 z m 614 346 b 533 203 603 289 572 238 b 393 144 492 167 443 144 b 275 203 344 144 303 167 b 244 346 247 238 235 289 b 325 488 256 401 286 453 b 465 546 367 525 414 546 b 582 488 514 546 556 525 b 614 346 611 453 624 401 l 614 346 z m 378 819 b 476 857 417 819 443 826 l 569 946 b 593 988 583 958 593 972 b 493 1042 593 1014 538 1042 b 426 1001 464 1042 442 1026 l 347 879 b 336 849 342 871 336 858 b 378 819 336 831 354 819 z "},"ô":{"ha":889,"x_min":0,"x_max":0,"o":"m 490 694 b 235 590 397 694 306 653 b 97 346 165 526 114 440 b 149 101 81 250 101 164 b 368 -3 199 38 275 -3 b 368 -3 368 -3 368 -3 b 622 101 461 -3 553 38 b 761 346 693 164 744 250 b 710 590 778 440 757 526 b 490 694 660 653 583 694 z m 614 346 b 533 203 603 289 572 238 b 393 144 492 167 443 144 b 275 203 344 144 303 167 b 244 346 247 238 235 289 b 325 488 256 401 286 453 b 465 546 367 525 414 546 b 582 488 514 546 556 525 b 614 346 611 453 624 401 l 614 346 z m 614 919 l 667 857 b 758 819 696 826 719 819 b 807 847 781 819 801 829 b 800 881 810 857 806 869 l 743 996 b 675 1036 731 1021 714 1036 l 625 1036 b 532 996 586 1036 560 1021 l 406 881 b 379 847 394 869 382 857 b 408 819 374 829 388 819 b 522 857 447 819 478 826 z "},"õ":{"ha":889,"x_min":0,"x_max":0,"o":"m 490 694 b 235 590 397 694 306 653 b 97 346 165 526 114 440 b 149 101 81 250 101 164 b 368 -3 199 38 275 -3 b 368 -3 368 -3 368 -3 b 622 101 461 -3 553 38 b 761 346 693 164 744 250 b 710 590 778 440 757 526 b 490 694 660 653 583 694 z m 614 346 b 533 203 603 289 572 238 b 393 144 492 167 443 144 b 275 203 344 144 303 167 b 244 346 247 238 235 289 b 325 488 256 401 286 453 b 465 546 367 525 414 546 b 582 488 514 546 556 525 b 614 346 611 453 624 401 l 614 346 z m 424 838 b 488 882 440 868 456 882 b 688 826 538 882 611 826 b 829 953 761 826 800 872 b 835 985 832 963 835 976 b 783 1031 835 1008 811 1031 b 738 1003 763 1031 747 1018 b 674 958 721 972 706 958 b 474 1014 624 958 550 1014 b 332 888 400 1014 361 968 b 326 856 329 878 326 864 b 378 810 326 832 350 810 b 424 838 400 810 414 822 z "},"ö":{"ha":889,"x_min":0,"x_max":0,"o":"m 490 694 b 235 590 397 694 306 653 b 97 346 165 526 114 440 b 149 101 81 250 101 164 b 368 -3 199 38 275 -3 b 368 -3 368 -3 368 -3 b 622 101 461 -3 553 38 b 761 346 693 164 744 250 b 710 590 778 440 757 526 b 490 694 660 653 583 694 z m 614 346 b 533 203 603 289 572 238 b 393 144 492 167 443 144 b 275 203 344 144 303 167 b 244 346 247 238 235 289 b 325 488 256 401 286 453 b 465 546 367 525 414 546 b 582 488 514 546 556 525 b 614 346 611 453 624 401 l 614 346 z m 740 1000 b 631 914 689 1000 640 964 l 629 904 b 703 819 618 854 651 819 b 811 904 753 819 800 854 l 813 914 b 740 1000 822 964 790 1000 z m 464 1000 b 354 914 413 1000 364 964 l 353 904 b 426 819 342 854 375 819 b 535 904 476 819 524 854 l 536 914 b 464 1000 546 964 514 1000 z "},"ù":{"ha":851,"x_min":0,"x_max":0,"o":""},"ú":{"ha":851,"x_min":0,"x_max":0,"o":"m 721 694 b 635 621 681 694 642 663 l 576 292 b 408 150 563 214 488 150 b 290 292 331 150 276 214 l 349 621 b 288 694 356 663 329 694 b 201 621 247 694 210 663 l 144 292 b 383 1 115 132 222 1 b 724 292 543 1 696 132 l 781 621 b 721 694 789 663 763 694 z m 439 819 b 538 857 478 819 504 826 l 631 946 b 654 988 644 958 654 972 b 554 1042 654 1014 599 1042 b 488 1001 525 1042 503 1026 l 408 879 b 397 849 403 871 397 858 b 439 819 397 831 415 819 z "},"û":{"ha":851,"x_min":0,"x_max":0,"o":""},"ü":{"ha":851,"x_min":0,"x_max":0,"o":"m 721 694 b 635 621 681 694 642 663 l 576 292 b 408 150 563 214 488 150 b 290 292 331 150 276 214 l 349 621 b 288 694 356 663 329 694 b 201 621 247 694 210 663 l 144 292 b 383 1 115 132 222 1 b 724 292 543 1 696 132 l 781 621 b 721 694 789 663 763 694 z m 701 1000 b 592 914 650 1000 601 964 l 590 904 b 664 819 579 854 613 819 b 772 904 714 819 761 854 l 774 914 b 701 1000 783 964 751 1000 z m 425 1000 b 315 914 374 1000 325 964 l 314 904 b 388 819 303 854 336 819 b 496 904 438 819 485 854 l 497 914 b 425 1000 507 964 475 1000 z "},"ý":{"ha":817,"x_min":0,"x_max":0,"o":""},"ÿ":{"ha":817,"x_min":0,"x_max":0,"o":"m 746 621 b 724 681 750 646 742 668 b 683 694 714 690 700 694 b 615 660 658 694 633 681 b 596 621 606 649 599 635 l 539 288 b 368 143 524 208 449 143 b 249 288 288 143 235 208 l 308 621 b 246 694 315 663 288 694 b 158 621 206 694 167 663 l 100 288 b 342 -6 72 126 181 -6 b 482 28 390 -6 438 6 b 285 -99 444 -47 365 -99 b 207 -81 256 -99 229 -92 b 100 -114 174 -62 125 -78 b 117 -214 76 -151 83 -196 b 258 -249 157 -236 206 -249 b 651 86 443 -249 619 -99 l 726 514 l 746 621 z m 703 1000 b 593 914 651 1000 603 964 l 592 904 b 665 819 581 854 614 819 b 774 904 715 819 763 854 l 775 914 b 703 1000 785 964 753 1000 z m 426 1000 b 317 914 375 1000 326 964 l 315 904 b 389 819 304 854 338 819 b 497 904 439 819 486 854 l 499 914 b 426 1000 508 964 476 1000 z "},"Ÿ":{"ha":994,"x_min":0,"x_max":0,"o":"m 822 849 b 824 956 853 883 854 931 b 714 939 794 981 744 974 l 417 611 l 235 939 b 129 956 215 974 168 981 b 94 849 92 931 75 883 l 313 456 l 244 75 b 308 -1 238 33 265 -1 b 399 75 350 -1 392 33 l 465 456 l 822 849 z m 690 1278 b 581 1192 639 1278 590 1242 l 579 1182 b 653 1097 568 1132 601 1097 b 761 1182 703 1097 750 1132 l 763 1192 b 690 1278 772 1242 740 1278 z m 414 1278 b 304 1192 363 1278 314 1242 l 303 1182 b 376 1097 292 1132 325 1097 b 485 1182 426 1097 474 1132 l 486 1192 b 414 1278 496 1242 464 1278 z "},"¡":{"ha":350,"x_min":0,"x_max":0,"o":"m 201 1 b 292 79 243 1 285 36 l 382 593 b 319 671 390 636 361 671 b 228 593 276 671 236 636 l 138 79 b 201 1 129 36 158 1 z m 340 790 b 431 867 382 790 424 825 l 436 897 b 372 974 443 939 415 974 b 282 897 329 974 289 939 l 276 867 b 340 790 269 825 297 790 z "},"œ":{"ha":1465,"x_min":0,"x_max":0,"o":"m 914 0 b 1206 110 1040 0 1121 29 b 1211 203 1232 136 1235 176 b 1110 200 1208 206 1163 251 b 940 146 1063 157 994 142 b 815 210 892 150 839 176 b 785 303 796 233 785 271 l 1236 303 b 1321 360 1275 303 1310 326 b 1324 372 1322 363 1324 369 b 1325 381 1325 375 1325 378 b 1043 708 1349 571 1228 708 b 740 567 928 708 818 651 b 719 600 735 578 726 589 b 497 706 669 664 592 706 b 238 600 403 706 310 664 b 97 351 167 535 114 447 b 150 103 81 254 101 167 b 372 -3 200 38 278 -3 b 631 103 467 -3 560 38 b 665 138 643 114 654 125 b 914 0 713 54 801 0 z m 622 351 b 540 206 611 293 581 242 b 399 147 499 169 449 147 b 278 206 349 147 307 169 b 247 351 250 242 238 293 b 329 496 258 408 289 460 b 471 554 371 533 419 554 b 590 496 521 554 563 533 b 622 351 619 460 632 408 z m 1018 574 b 1200 424 1140 564 1197 481 l 799 424 b 1018 574 821 482 896 568 z "},"¿":{"ha":742,"x_min":0,"x_max":0,"o":"m 496 800 b 581 872 536 800 574 832 l 585 899 b 526 971 592 939 565 971 b 442 899 486 971 449 939 l 438 872 b 496 800 431 832 457 800 z m 356 -1 b 649 151 468 -1 579 60 b 639 249 674 186 671 229 b 538 224 608 269 564 257 l 538 224 b 381 142 500 174 442 142 b 244 306 290 142 229 215 b 439 471 261 397 347 471 b 522 542 478 471 515 503 b 522 544 522 543 522 543 b 524 547 522 546 524 546 l 550 700 b 492 771 557 740 531 771 b 408 700 453 771 415 740 l 390 604 b 103 306 250 572 128 451 b 356 -1 72 136 186 -1 z "},"ß":{"ha":861,"x_min":0,"x_max":0,"o":"m 435 43 b 499 -26 428 3 451 -26 b 860 250 656 -24 828 69 l 860 253 b 693 500 885 390 794 464 b 889 738 781 544 867 613 l 889 740 b 635 1001 915 886 824 1001 b 247 675 432 1001 282 876 l 138 53 b 206 -29 129 7 160 -29 b 304 53 253 -29 296 7 l 415 681 b 601 858 433 789 510 858 b 718 725 686 858 733 806 l 718 722 b 560 547 704 642 639 588 b 511 478 536 533 517 511 b 560 404 503 435 529 414 b 693 257 649 381 707 336 l 693 254 b 506 110 678 169 607 125 b 435 43 468 101 440 76 z "},"î":{"ha":346,"x_min":0,"x_max":0,"o":"m 28 75 b 92 -1 21 33 49 -1 b 182 75 135 -1 175 33 l 282 644 b 219 721 290 686 261 721 b 129 644 176 721 136 686 l 28 75 z m 294 919 l 347 857 b 439 819 376 826 400 819 b 488 847 461 819 482 829 b 481 881 490 857 486 869 l 424 996 b 356 1036 411 1021 394 1036 l 306 1036 b 213 996 267 1036 240 1021 l 86 881 b 60 847 75 869 63 857 b 89 819 54 829 68 819 b 203 857 128 819 158 826 z "},"[":{"ha":597,"x_min":0,"x_max":0,"o":"m 143 -90 b 211 -174 136 -136 165 -174 l 497 -174 b 575 -107 533 -174 569 -143 b 521 -42 582 -71 557 -42 l 314 -42 l 469 847 l 676 847 b 756 913 713 847 749 876 b 700 979 761 949 736 979 l 414 979 b 318 896 368 979 325 942 l 143 -90 z "},"]":{"ha":597,"x_min":0,"x_max":0,"o":"m 694 896 b 626 979 701 942 672 979 l 340 979 b 263 913 304 979 268 949 b 317 847 256 876 281 847 l 524 847 l 368 -42 l 161 -42 b 82 -107 125 -42 89 -71 b 138 -174 76 -143 101 -174 l 424 -174 b 519 -90 469 -174 513 -136 z "},"\"":{"ha":569,"x_min":0,"x_max":0,"o":"m 401 601 b 447 549 399 569 421 549 b 497 592 474 549 488 565 l 599 900 b 604 931 601 911 604 922 b 560 976 604 960 585 976 l 504 976 b 425 899 458 976 428 943 z m 96 601 b 143 549 94 569 115 549 b 193 592 169 549 183 565 l 294 900 b 300 931 297 911 300 922 b 254 976 300 960 281 976 l 200 976 b 121 899 154 976 124 943 z "},"#":{"ha":972,"x_min":0,"x_max":0,"o":"m 174 78 b 244 -7 167 31 200 -7 b 318 53 286 -7 313 22 l 347 224 l 565 224 l 539 78 b 611 -7 532 35 565 -7 b 683 53 647 -7 678 18 l 713 224 l 817 224 b 889 296 857 224 889 257 b 817 368 889 336 857 368 l 738 368 l 779 610 l 868 610 b 940 682 907 610 940 643 b 868 754 940 722 907 754 l 804 754 l 828 894 b 757 979 835 938 801 979 b 683 919 719 979 689 956 l 656 754 l 438 754 l 463 894 b 390 979 468 938 436 979 b 318 919 354 979 324 956 l 290 754 l 185 754 b 113 682 146 754 113 721 b 185 610 113 643 146 610 l 265 610 l 224 368 l 135 368 b 63 296 94 368 63 335 b 135 224 63 256 94 224 l 199 224 z m 372 368 l 414 610 l 631 610 l 589 368 z "},"$":{"ha":878,"x_min":0,"x_max":0,"o":"m 557 1000 l 551 971 b 213 706 375 957 239 854 b 460 419 185 549 267 472 l 411 146 b 222 239 338 160 279 192 b 179 254 211 249 196 254 b 89 178 136 254 97 221 b 115 111 85 149 94 126 b 381 3 189 51 279 14 l 365 -83 b 417 -143 360 -117 383 -143 b 486 -83 450 -143 481 -117 l 501 0 b 844 271 681 17 818 118 b 593 557 871 419 796 504 l 640 824 b 774 763 686 813 729 792 b 813 750 786 754 799 750 b 904 826 856 750 896 783 b 874 893 910 860 894 881 b 672 969 817 933 753 960 l 678 1000 b 628 1060 683 1033 661 1060 b 557 1000 594 1060 563 1033 l 557 1000 z m 679 261 b 521 140 667 194 611 150 l 565 393 b 679 261 665 360 690 322 l 679 261 z m 379 715 b 532 832 389 776 442 824 l 489 586 b 379 715 389 621 368 657 z "},"Š":{"ha":889,"x_min":0,"x_max":0,"o":"m 671 1178 l 724 1115 b 815 1078 753 1085 776 1078 b 864 1106 838 1078 858 1088 b 857 1139 867 1115 863 1128 l 800 1254 b 732 1294 788 1279 771 1294 l 682 1294 b 589 1254 643 1294 617 1279 l 463 1139 b 436 1106 451 1128 439 1115 b 465 1078 431 1088 444 1078 b 579 1115 504 1078 535 1085 z m 115 136 b 122 233 90 160 93 203 l 122 233 b 222 243 151 263 196 267 l 222 243 b 464 139 272 194 365 138 l 464 139 b 640 189 532 139 596 160 l 640 189 b 717 286 686 219 710 253 l 717 286 b 713 329 719 304 718 317 l 713 329 b 678 369 706 343 696 357 l 678 369 b 503 435 643 396 581 419 l 503 435 l 501 435 l 500 435 b 336 488 439 447 383 464 l 336 488 b 228 593 289 513 250 544 l 228 593 b 217 703 214 625 210 664 l 217 703 b 361 900 232 785 290 856 l 361 900 b 607 972 432 946 518 972 l 607 972 b 882 864 738 972 821 908 l 882 864 b 885 768 911 843 911 800 l 885 768 b 786 749 858 736 814 726 l 786 749 b 583 833 725 793 665 835 l 583 833 b 422 789 521 835 463 815 l 422 789 b 356 703 382 761 361 732 l 356 703 b 360 665 353 688 354 676 l 360 665 b 389 631 364 654 374 643 l 389 631 b 549 571 421 606 478 585 l 549 571 l 551 571 l 551 571 b 729 514 618 558 678 540 l 729 514 b 843 403 778 488 821 453 l 843 403 b 854 286 858 368 863 328 l 854 286 b 703 76 839 200 778 125 l 703 76 b 439 0 626 28 535 0 l 439 0 b 115 136 292 1 181 74 l 115 136 z "},"š":{"ha":690,"x_min":0,"x_max":0,"o":"m 539 908 l 592 846 b 683 808 621 815 644 808 b 732 836 706 808 726 818 b 725 869 735 846 731 858 l 668 985 b 600 1025 656 1010 639 1025 l 550 1025 b 457 985 511 1025 485 1010 l 331 869 b 304 836 319 858 307 846 b 333 808 299 818 313 808 b 447 846 372 808 403 815 z m 99 97 b 106 199 71 124 75 168 l 106 199 b 214 208 138 232 186 236 l 214 208 b 351 150 242 179 299 149 l 351 150 b 451 175 390 150 428 161 l 451 175 b 486 215 475 192 483 204 l 486 215 b 485 231 486 222 486 225 l 485 231 b 469 249 482 235 478 240 l 469 249 b 363 286 450 261 411 276 l 363 286 l 363 286 l 363 286 l 361 286 b 246 322 319 294 279 306 l 246 322 b 168 404 217 340 185 365 l 168 404 b 158 490 158 429 154 458 l 158 490 b 267 642 171 553 217 607 l 267 642 b 446 694 321 675 383 694 l 446 694 b 640 617 542 694 601 647 l 640 617 l 640 617 b 643 515 671 596 672 549 l 643 515 b 539 494 617 482 568 472 l 539 494 b 421 547 500 524 465 547 l 421 547 b 333 521 386 547 353 536 l 333 521 b 306 490 313 508 307 496 l 306 490 b 306 479 304 485 306 483 l 306 479 b 319 465 307 476 311 471 l 319 465 b 413 433 333 453 368 440 l 413 433 l 414 432 l 415 432 b 538 392 461 424 503 411 l 538 392 b 621 308 572 374 604 347 l 621 308 b 631 215 633 281 636 250 l 631 215 b 517 57 618 150 571 93 l 517 57 b 326 1 461 22 393 1 l 326 1 b 99 97 221 3 144 53 l 99 97 z "},"¢":{"ha":807,"x_min":0,"x_max":0,"o":"m 569 193 b 429 149 529 167 479 149 b 371 157 408 149 388 151 l 594 533 b 626 511 606 526 617 519 b 736 525 654 485 700 490 b 739 629 763 556 767 604 b 676 672 721 646 700 660 l 726 754 b 704 853 749 792 739 838 b 596 813 667 869 619 851 l 533 707 l 528 707 b 104 351 331 706 139 549 b 169 99 86 251 114 163 l 113 3 b 138 -97 89 -36 100 -82 b 164 -103 144 -101 156 -103 b 243 -57 193 -103 225 -86 l 288 18 b 403 -1 322 6 361 -1 b 640 74 488 -1 572 29 b 675 178 678 101 692 147 b 569 193 651 213 607 218 l 569 193 z m 254 351 b 436 546 269 440 346 519 l 263 254 b 254 351 251 283 247 317 z "},"£":{"ha":894,"x_min":0,"x_max":0,"o":"m 97 60 b 151 0 92 26 113 0 l 760 0 b 849 74 801 0 840 32 b 786 149 856 115 828 149 l 403 149 l 444 386 l 725 386 b 811 458 764 386 803 418 b 751 531 817 497 790 531 l 471 531 l 492 654 b 563 789 503 713 528 758 b 671 828 593 814 626 828 b 807 756 735 828 772 801 b 864 729 817 743 833 729 b 964 813 911 729 956 765 b 947 874 968 839 960 858 b 697 986 899 939 825 986 b 449 900 597 986 513 956 b 319 658 383 844 338 760 l 297 531 l 253 531 b 168 458 213 531 174 497 b 226 386 160 418 186 386 l 271 386 l 228 142 l 154 121 b 97 60 121 111 101 88 z "},"¥":{"ha":953,"x_min":0,"x_max":0,"o":"m 547 369 l 761 369 b 833 431 794 369 826 397 b 782 493 839 465 815 493 l 614 493 l 935 843 b 965 903 950 860 961 879 b 899 982 975 951 943 982 b 811 933 863 982 833 958 l 503 572 l 324 935 b 251 982 308 964 288 982 b 151 901 203 982 160 944 b 163 843 149 881 151 863 l 356 493 l 190 493 b 119 431 157 493 125 465 b 169 369 113 397 136 369 l 383 369 l 365 268 l 151 268 b 79 206 118 268 85 240 b 129 144 74 172 96 144 l 343 144 l 332 78 b 399 -4 324 32 353 -4 b 496 78 444 -4 488 32 l 507 144 l 721 144 b 793 206 754 144 788 172 b 743 268 799 240 776 268 l 529 268 l 547 369 z "},"©":{"ha":1153,"x_min":0,"x_max":0,"o":"m 575 -17 b 1079 486 857 -17 1079 213 l 1079 489 b 578 989 1079 763 860 989 b 74 486 296 989 74 760 l 74 483 b 575 -17 74 210 293 -17 z m 575 33 b 126 483 319 33 126 235 l 126 486 b 578 939 126 735 321 939 b 1026 489 833 939 1026 738 l 1026 486 b 575 33 1026 238 832 33 z m 582 221 b 776 294 671 221 725 250 b 792 329 785 301 792 314 b 743 378 792 356 769 378 b 713 365 729 378 719 371 b 585 315 675 333 638 315 b 421 492 490 315 421 396 l 421 494 b 585 671 421 592 490 671 b 704 626 632 671 672 651 b 738 613 715 618 726 613 b 788 664 765 613 788 635 b 765 706 788 682 778 697 b 585 765 721 742 669 765 b 315 493 428 765 315 642 l 315 490 b 582 221 315 340 429 221 z "},"®":{"ha":578,"x_min":0,"x_max":0,"o":"m 289 500 b 531 743 424 500 531 611 l 531 744 b 289 986 531 876 425 986 b 47 743 154 986 47 875 l 47 742 b 289 500 47 610 153 500 z m 289 526 b 75 742 167 526 75 624 l 75 743 b 289 960 75 861 168 960 b 503 744 411 960 503 863 l 503 743 b 289 526 503 625 410 526 z m 382 643 b 381 668 382 647 381 656 b 368 711 381 685 375 700 b 353 726 364 718 358 722 b 385 793 372 743 385 767 b 299 881 385 842 346 881 l 225 881 b 225 881 225 881 225 881 b 225 881 225 881 225 881 b 203 858 213 881 203 871 l 203 618 b 225 596 203 606 213 596 b 249 618 238 596 249 606 l 249 707 l 296 707 b 318 697 300 706 310 703 b 331 685 324 693 328 689 b 336 668 333 681 335 675 b 344 618 336 644 339 631 b 357 604 347 613 351 607 b 374 600 363 601 369 600 b 374 600 374 600 374 600 b 382 601 378 600 381 601 b 397 629 394 606 401 618 b 382 643 394 636 389 642 z m 299 751 l 249 751 l 249 835 l 299 835 b 340 793 321 835 340 817 b 299 751 340 771 321 751 z "},"{":{"ha":667,"x_min":0,"x_max":0,"o":"m 451 -206 b 538 -149 492 -215 531 -189 b 508 -92 543 -115 524 -97 b 386 88 381 -50 369 -7 b 407 190 390 115 401 161 b 296 381 426 299 383 350 b 474 571 393 410 454 463 b 489 674 479 600 485 646 b 675 853 506 768 533 811 b 724 910 693 858 718 876 b 657 967 731 950 703 976 b 338 699 433 919 361 833 b 324 599 335 678 328 622 b 165 447 306 496 261 451 b 83 381 121 444 90 418 b 142 314 76 343 99 317 b 246 164 236 311 264 265 b 226 64 242 140 229 85 b 451 -206 201 -72 244 -158 z "},"}":{"ha":667,"x_min":0,"x_max":0,"o":"m 353 967 b 267 910 313 976 274 950 b 296 853 261 876 281 858 b 418 674 424 811 435 768 b 397 571 414 646 403 600 b 508 381 378 463 421 411 b 331 190 411 351 350 299 b 315 88 325 161 319 115 b 129 -92 299 -7 271 -50 b 81 -149 111 -97 86 -115 b 147 -206 74 -189 101 -215 b 467 63 371 -158 443 -72 b 481 163 469 83 476 139 b 639 314 499 265 543 310 b 721 381 683 317 714 343 b 663 447 728 418 706 444 b 558 597 568 450 540 496 b 578 697 563 621 575 676 b 353 967 603 833 560 919 z "},"|":{"ha":397,"x_min":0,"x_max":0,"o":"m 175 -118 b 226 -185 168 -156 192 -185 b 308 -118 264 -185 301 -156 l 517 1049 b 463 1115 524 1086 500 1115 b 382 1049 426 1115 389 1086 z "},"÷":{"ha":861,"x_min":0,"x_max":0,"o":"m 718 417 b 801 489 758 417 794 450 b 739 561 807 528 779 561 l 178 561 b 96 489 138 561 101 528 b 157 417 89 450 117 417 z m 504 874 b 396 782 451 874 403 832 l 394 775 b 476 682 386 724 424 682 b 586 775 529 682 578 724 l 588 782 b 504 874 594 832 557 874 z m 419 296 b 310 203 367 296 318 254 l 308 196 b 392 104 301 144 339 104 b 500 196 444 104 493 144 l 501 203 b 419 296 510 254 472 296 z "},"×":{"ha":861,"x_min":0,"x_max":0,"o":"m 789 668 b 821 722 806 682 818 701 b 757 796 826 764 799 796 b 700 772 736 796 717 788 l 497 590 l 343 772 b 292 796 332 786 315 796 b 207 721 250 796 213 763 b 221 665 203 697 211 679 l 381 488 l 176 310 b 144 254 160 296 147 276 b 207 182 139 214 167 182 b 265 206 229 182 249 190 l 468 388 l 621 204 b 674 182 633 192 650 182 b 758 257 715 182 753 215 b 743 313 763 281 754 299 l 585 490 z "},"Æ":{"ha":1451,"x_min":0,"x_max":0,"o":"m 56 79 b 118 8 49 39 76 8 b 201 56 151 8 178 25 l 349 251 l 715 251 l 689 103 b 760 17 681 54 711 17 l 1301 17 b 1390 93 1343 17 1383 50 b 1328 169 1399 135 1369 169 l 871 169 l 917 431 l 1304 431 b 1394 506 1346 431 1388 464 b 1332 583 1401 549 1374 583 l 944 583 l 989 836 l 1439 836 b 1528 913 1481 836 1521 869 b 1465 989 1536 954 1507 989 l 797 989 b 688 929 749 989 714 967 l 78 128 b 56 79 67 115 58 96 l 56 79 z m 463 403 l 790 840 l 818 840 l 742 403 l 463 403 z "},"~":{"ha":639,"x_min":0,"x_max":0,"o":"m 214 343 b 279 388 231 374 246 388 b 478 332 328 388 401 332 b 619 458 553 332 590 378 b 625 490 624 468 625 482 b 574 538 625 514 601 538 b 529 508 553 538 538 524 b 464 465 513 478 497 465 b 265 519 415 465 342 519 b 124 393 190 519 153 474 b 118 363 119 385 118 369 b 169 315 118 338 142 315 b 214 343 190 315 206 328 z "},"^":{"ha":694,"x_min":0,"x_max":0,"o":"m 388 868 l 461 739 b 550 678 488 690 508 678 b 594 706 572 678 590 689 b 588 747 597 718 594 732 l 493 928 b 417 978 475 960 456 978 l 404 978 b 310 928 365 978 338 960 l 140 747 b 115 706 126 732 118 718 b 149 678 111 689 126 678 b 261 739 189 678 213 690 z "},"_":{"ha":833,"x_min":0,"x_max":0,"o":"m 25 -222 l 864 -222 b 944 -157 900 -222 936 -193 b 893 -92 951 -121 929 -92 l 54 -92 b -25 -157 18 -92 -18 -121 b 25 -222 -33 -193 -11 -222 z "},"–":{"ha":733,"x_min":0,"x_max":0,"o":"m 163 346 l 596 346 b 696 425 639 346 683 382 b 638 506 707 469 681 506 l 204 506 b 104 425 161 506 115 469 b 163 346 92 382 119 346 z "},"—":{"ha":1247,"x_min":0,"x_max":0,"o":"m 161 346 l 1108 346 b 1211 425 1151 346 1197 382 b 1154 506 1224 469 1197 506 l 207 506 b 106 425 164 506 118 469 b 161 346 92 382 118 346 z "},"«":{"ha":715,"x_min":0,"x_max":0,"o":"m 632 58 b 714 128 671 58 706 89 b 703 174 717 146 714 158 l 590 368 l 769 558 b 797 606 783 571 794 588 b 742 675 804 643 781 675 b 674 642 717 675 692 661 l 458 415 b 429 367 443 400 432 385 b 440 318 425 349 431 335 l 578 88 b 632 58 588 71 606 58 z m 282 58 b 364 128 321 58 357 89 b 354 174 367 144 364 160 l 240 368 l 421 558 b 447 606 433 571 444 588 b 393 675 454 643 431 675 b 324 642 367 675 343 661 l 108 415 b 81 367 93 400 83 385 b 90 318 76 349 81 335 l 228 88 b 282 58 238 71 257 58 z "},"»":{"ha":715,"x_min":0,"x_max":0,"o":"m 265 675 b 183 606 226 675 192 644 b 194 560 181 588 183 575 l 307 365 l 128 175 b 100 128 114 163 103 146 b 156 58 93 90 117 58 b 224 92 181 58 206 72 l 439 318 b 468 367 454 333 465 349 b 457 415 472 385 467 399 l 319 646 b 265 675 310 663 292 675 z m 615 675 b 533 606 576 675 540 644 b 543 560 531 589 533 574 l 657 365 l 476 175 b 450 128 464 163 453 146 b 504 58 443 90 467 58 b 574 92 531 58 554 72 l 789 318 b 817 367 804 333 814 349 b 807 415 821 385 817 399 l 669 646 b 615 675 660 663 640 675 z "},"Œ":{"ha":1600,"x_min":0,"x_max":0,"o":"m 864 1 l 867 3 b 868 1 867 3 865 1 l 1318 1 b 1408 78 1358 1 1401 36 b 1346 156 1417 121 1386 156 l 969 156 l 1014 411 l 1338 411 b 1428 489 1379 411 1421 446 b 1365 565 1435 529 1407 565 l 1042 565 l 1086 819 l 1463 819 b 1553 897 1503 819 1546 854 b 1490 974 1561 940 1531 974 l 1036 974 b 946 897 993 974 954 940 l 938 846 b 933 853 935 849 933 850 b 626 1001 867 944 754 1001 b 261 853 493 1001 361 944 b 61 501 158 761 85 639 b 136 150 36 364 67 240 b 450 1 206 60 317 1 b 808 150 578 1 711 60 b 815 156 811 151 813 154 l 801 78 b 864 1 794 36 821 1 l 864 1 z m 715 260 b 479 160 646 197 563 160 b 271 260 390 160 318 197 b 219 501 224 319 203 407 b 357 744 236 596 288 683 b 599 843 426 807 510 843 b 801 744 682 843 754 807 b 853 501 847 683 869 596 b 715 260 836 407 783 319 z "},"Ð":{"ha":1128,"x_min":0,"x_max":0,"o":"m 515 972 l 351 972 b 260 896 308 972 268 939 l 197 540 l 144 540 b 83 490 117 540 89 518 b 121 440 76 463 93 440 l 181 440 l 117 78 b 179 0 108 35 138 0 l 181 0 l 343 0 b 915 486 611 0 868 218 b 515 972 963 756 783 972 z m 761 486 b 371 154 729 303 554 154 l 283 154 l 333 440 l 379 440 b 440 490 407 440 433 463 b 403 540 446 518 431 540 l 351 540 l 400 819 l 488 819 b 761 486 671 818 793 671 z "},"ð":{"ha":872,"x_min":0,"x_max":0,"o":"m 669 618 b 486 675 615 654 565 675 b 113 346 304 675 143 542 b 429 -17 81 146 214 -17 b 872 360 669 -17 842 157 b 804 699 892 483 869 578 l 707 876 l 814 919 b 858 969 836 928 854 944 b 814 1024 863 999 843 1024 b 789 1018 807 1024 799 1021 l 660 965 l 649 988 b 588 1025 636 1010 618 1025 b 499 949 544 1025 506 990 b 506 904 497 932 499 918 l 371 849 b 326 799 347 840 329 824 b 371 746 321 769 342 746 b 394 750 379 746 388 747 l 557 817 z m 704 343 b 458 126 686 224 588 126 b 276 342 332 126 258 226 b 519 551 296 461 392 551 b 704 343 649 551 722 458 z "},"Á":{"ha":897,"x_min":0,"x_max":0,"o":""}}}
